<svg xmlns="http://www.w3.org/2000/svg" xmlns:xlink="http://www.w3.org/1999/xlink" width="1080" zoomAndPan="magnify" viewBox="0 0 810 809.999993" height="1080" preserveAspectRatio="xMidYMid meet" version="1.0"><defs><clipPath id="id1"><path d="M 472 2.53125 L 785 2.53125 L 785 188 L 472 188 Z M 472 2.53125 " clip-rule="nonzero"/></clipPath></defs><path fill="rgb(63.919067%, 38.42926%, 22.749329%)" d="M 433.085938 710.441406 L 47.386719 710.441406 L 47.386719 453.078125 L 433.085938 453.078125 L 433.085938 710.441406 " fill-opacity="1" fill-rule="nonzero"/><path fill="rgb(48.629761%, 27.839661%, 16.468811%)" d="M 47.386719 468.34375 L 433.085938 492.453125 L 433.085938 453.078125 L 47.386719 453.078125 L 47.386719 468.34375 " fill-opacity="1" fill-rule="nonzero"/><path fill="rgb(66.668701%, 40.779114%, 26.269531%)" d="M 454.140625 461.210938 L 26.320312 461.210938 L 26.320312 429.667969 L 454.140625 429.667969 L 454.140625 461.210938 " fill-opacity="1" fill-rule="nonzero"/><path fill="rgb(73.728943%, 49.01886%, 35.289001%)" d="M 454.140625 429.667969 L 433.085938 410.09375 L 47.386719 410.09375 L 26.320312 429.667969 L 454.140625 429.667969 " fill-opacity="1" fill-rule="nonzero"/><path fill="rgb(91.758728%, 88.238525%, 75.689697%)" d="M 403.503906 628.675781 L 85.101562 628.675781 L 85.101562 534.832031 L 403.503906 534.832031 L 403.503906 628.675781 " fill-opacity="1" fill-rule="nonzero"/><path fill="rgb(12.939453%, 17.248535%, 19.60907%)" d="M 149.796875 598.042969 C 152.355469 598.042969 154.753906 597.554688 156.976562 596.585938 C 159.207031 595.613281 161.15625 594.273438 162.84375 592.578125 C 164.519531 590.875 165.839844 588.910156 166.8125 586.660156 C 167.78125 584.410156 168.261719 582.003906 168.261719 579.445312 C 168.261719 576.878906 167.78125 574.492188 166.8125 572.257812 C 165.839844 570.035156 164.519531 568.078125 162.84375 566.402344 C 161.15625 564.726562 159.207031 563.398438 156.976562 562.429688 C 154.753906 561.457031 152.355469 560.972656 149.796875 560.972656 L 138.871094 560.972656 L 138.871094 598.042969 Z M 134.234375 556.335938 L 149.796875 556.335938 C 152.976562 556.335938 155.972656 556.949219 158.804688 558.160156 C 161.628906 559.371094 164.070312 561.019531 166.148438 563.085938 C 168.226562 565.164062 169.867188 567.613281 171.078125 570.4375 C 172.300781 573.261719 172.898438 576.265625 172.898438 579.445312 C 172.898438 582.617188 172.300781 585.621094 171.078125 588.4375 C 169.867188 591.269531 168.226562 593.738281 166.148438 595.851562 C 164.070312 597.972656 161.628906 599.640625 158.804688 600.851562 C 155.972656 602.0625 152.976562 602.671875 149.796875 602.671875 L 134.234375 602.671875 L 134.234375 556.335938 " fill-opacity="1" fill-rule="nonzero"/><path fill="rgb(12.939453%, 17.248535%, 19.60907%)" d="M 181.042969 579.472656 C 181.042969 582.214844 181.574219 584.808594 182.628906 587.261719 C 183.695312 589.710938 185.136719 591.859375 186.964844 593.691406 C 188.796875 595.53125 190.9375 596.96875 193.390625 598.035156 C 195.839844 599.101562 198.4375 599.628906 201.167969 599.628906 C 203.902344 599.628906 206.492188 599.101562 208.914062 598.035156 C 211.335938 596.96875 213.46875 595.53125 215.300781 593.691406 C 217.132812 591.859375 218.578125 589.710938 219.644531 587.261719 C 220.703125 584.808594 221.230469 582.214844 221.230469 579.472656 C 221.230469 576.730469 220.703125 574.144531 219.644531 571.710938 C 218.578125 569.28125 217.132812 567.148438 215.300781 565.320312 C 213.46875 563.480469 211.335938 562.039062 208.914062 560.984375 C 206.492188 559.917969 203.902344 559.378906 201.167969 559.378906 C 198.4375 559.378906 195.839844 559.917969 193.390625 560.984375 C 190.9375 562.039062 188.796875 563.480469 186.964844 565.320312 C 185.136719 567.148438 183.695312 569.28125 182.628906 571.710938 C 181.574219 574.144531 181.042969 576.730469 181.042969 579.472656 Z M 176.40625 579.5 C 176.40625 576.101562 177.0625 572.90625 178.355469 569.910156 C 179.660156 566.914062 181.4375 564.289062 183.6875 562.03125 C 185.929688 559.78125 188.550781 558.003906 191.550781 556.703125 C 194.546875 555.398438 197.746094 554.753906 201.132812 554.753906 C 204.53125 554.753906 207.71875 555.398438 210.71875 556.703125 C 213.722656 558.003906 216.347656 559.78125 218.589844 562.03125 C 220.839844 564.289062 222.617188 566.914062 223.910156 569.910156 C 225.210938 572.90625 225.867188 576.101562 225.867188 579.5 C 225.867188 582.90625 225.210938 586.105469 223.910156 589.101562 C 222.617188 592.105469 220.839844 594.730469 218.589844 596.980469 C 216.347656 599.230469 213.722656 601.003906 210.71875 602.308594 C 207.71875 603.609375 204.53125 604.257812 201.132812 604.257812 C 197.746094 604.257812 194.546875 603.609375 191.550781 602.308594 C 188.550781 601.003906 185.929688 599.230469 183.6875 596.980469 C 181.4375 594.730469 179.660156 592.105469 178.355469 589.101562 C 177.0625 586.105469 176.40625 582.90625 176.40625 579.5 " fill-opacity="1" fill-rule="nonzero"/><path fill="rgb(12.939453%, 17.248535%, 19.60907%)" d="M 256.578125 556.335938 L 261.21875 556.335938 L 261.21875 602.671875 L 256.578125 602.671875 L 234.996094 565.601562 L 234.996094 602.671875 L 230.359375 602.671875 L 230.359375 556.335938 L 234.996094 556.335938 L 256.578125 593.398438 L 256.578125 556.335938 " fill-opacity="1" fill-rule="nonzero"/><path fill="rgb(12.939453%, 17.248535%, 19.60907%)" d="M 275.847656 580.039062 L 286.171875 580.039062 L 281.003906 563.953125 Z M 298.289062 602.671875 L 293.457031 602.671875 L 287.628906 584.664062 L 274.328125 584.664062 L 268.558594 602.671875 L 263.730469 602.671875 L 278.5625 556.335938 L 283.464844 556.335938 L 298.289062 602.671875 " fill-opacity="1" fill-rule="nonzero"/><path fill="rgb(12.939453%, 17.248535%, 19.60907%)" d="M 291.136719 560.972656 L 291.136719 556.335938 L 321.992188 556.335938 L 321.992188 560.972656 L 308.882812 560.972656 L 308.882812 602.671875 L 304.246094 602.671875 L 304.246094 560.972656 L 291.136719 560.972656 " fill-opacity="1" fill-rule="nonzero"/><path fill="rgb(12.939453%, 17.248535%, 19.60907%)" d="M 325.300781 556.335938 L 356.148438 556.335938 L 356.148438 560.972656 L 329.9375 560.972656 L 329.9375 580.039062 L 351.519531 580.039062 L 351.519531 584.664062 L 329.9375 584.664062 L 329.9375 598.042969 L 356.148438 598.042969 L 356.148438 602.671875 L 325.300781 602.671875 L 325.300781 556.335938 " fill-opacity="1" fill-rule="nonzero"/><path fill="rgb(44.709778%, 25.878906%, 16.468811%)" d="M 340.039062 422.226562 L 140.429688 422.226562 L 150.753906 414.203125 L 329.71875 414.203125 L 340.039062 422.226562 " fill-opacity="1" fill-rule="nonzero"/><path fill="rgb(94.119263%, 61.569214%, 47.44873%)" d="M 490.945312 667.941406 C 490.945312 667.941406 430.289062 613.800781 354.773438 650.5625 C 354.773438 650.5625 304.820312 658.753906 293.195312 659.992188 C 293.195312 659.992188 225.8125 654.617188 217.6875 669.726562 C 217.6875 669.726562 209.550781 678.617188 214.5625 690.394531 C 214.5625 690.394531 164.246094 695.996094 145.660156 698.484375 C 145.660156 698.484375 113.125 695.996094 93.382812 698.484375 C 93.382812 698.484375 42.519531 696.660156 40.195312 702.871094 C 40.195312 702.871094 1.859375 723.976562 61.105469 743.84375 C 61.105469 743.84375 110.804688 750.628906 138.691406 759.316406 C 138.691406 759.316406 242.550781 784.144531 276.238281 790.347656 C 276.238281 790.347656 285.542969 797.800781 316.910156 790.347656 C 316.910156 790.347656 431.445312 766.769531 472.105469 766.769531 C 472.105469 766.769531 680.871094 763.035156 704.460938 763.035156 L 704.460938 636.398438 C 704.460938 636.398438 600.699219 661.109375 490.945312 667.941406 " fill-opacity="1" fill-rule="nonzero"/><path fill="rgb(85.879517%, 50.19989%, 39.219666%)" d="M 214.5625 690.394531 C 214.5625 690.394531 214.746094 691.132812 215.410156 692.324219 C 216.066406 693.527344 217.269531 695.140625 219.125 696.816406 C 220.996094 698.484375 223.492188 700.214844 226.617188 701.726562 C 229.777344 703.164062 233.4375 704.566406 237.628906 705.542969 C 241.773438 706.625 246.421875 707.261719 251.3125 707.910156 C 253.78125 708.109375 256.316406 708.308594 258.910156 708.519531 C 261.5 708.601562 264.269531 708.800781 267.011719 708.949219 C 272.542969 709.285156 278.253906 709.523438 284.058594 709.976562 C 289.851562 710.414062 295.710938 710.652344 301.585938 710.996094 C 307.472656 711.425781 313.363281 711.84375 319.160156 712.261719 C 322.074219 712.453125 324.953125 712.691406 327.796875 712.964844 C 330.675781 713.328125 333.507812 713.683594 336.304688 714.046875 C 337.699219 714.222656 339.085938 714.402344 340.449219 714.578125 L 342.492188 714.832031 L 342.910156 714.90625 L 343.648438 715.070312 L 344.625 715.304688 C 345.925781 715.605469 347.210938 715.90625 348.476562 716.207031 C 349.78125 716.582031 351.101562 717.027344 352.386719 717.429688 C 353.597656 717.828125 354.800781 718.21875 355.984375 718.613281 C 357.132812 719.003906 358.261719 719.378906 359.316406 719.621094 C 360.394531 719.894531 361.449219 720.25 362.507812 720.453125 C 363.574219 720.589844 364.621094 720.726562 365.648438 720.851562 C 366.167969 720.925781 366.679688 720.988281 367.179688 721.054688 C 367.699219 721.070312 368.210938 721.042969 368.71875 721.042969 C 369.742188 721.042969 370.742188 721.035156 371.707031 721.035156 C 373.660156 721.136719 375.535156 720.871094 377.292969 720.6875 C 379.070312 720.515625 380.726562 720.351562 382.257812 720.195312 C 383.796875 720.015625 385.203125 719.742188 386.476562 719.550781 C 391.570312 718.730469 394.53125 718.339844 394.53125 718.339844 C 394.53125 718.339844 391.769531 719.40625 386.859375 721.152344 C 385.628906 721.570312 384.273438 722.101562 382.769531 722.554688 C 381.238281 722.949219 379.578125 723.375 377.8125 723.839844 C 376.027344 724.277344 374.148438 724.824219 372.054688 725.035156 C 371.015625 725.171875 369.949219 725.316406 368.855469 725.453125 C 368.300781 725.515625 367.753906 725.597656 367.179688 725.652344 C 366.605469 725.632812 366.023438 725.632812 365.441406 725.625 C 360.710938 725.933594 355.5 724.558594 350.773438 723.429688 C 349.605469 723.167969 348.429688 722.894531 347.238281 722.621094 C 345.953125 722.429688 344.652344 722.238281 343.328125 722.035156 L 342.335938 721.890625 L 341.84375 721.816406 L 341.589844 721.773438 C 341.910156 721.828125 341.644531 721.789062 341.699219 721.800781 L 341.636719 721.800781 L 341.507812 721.789062 L 339.519531 721.636719 C 338.183594 721.535156 336.832031 721.425781 335.476562 721.328125 C 332.761719 721.117188 330.011719 720.90625 327.214844 720.699219 C 324.371094 720.597656 321.5 720.460938 318.613281 720.277344 C 312.808594 719.960938 306.914062 719.632812 301.019531 719.296875 C 295.117188 718.847656 289.175781 718.511719 283.402344 717.984375 C 277.605469 717.492188 271.921875 716.789062 266.417969 716.234375 C 263.648438 715.925781 261 715.679688 258.265625 715.324219 C 255.578125 714.886719 252.945312 714.449219 250.375 714.03125 C 245.265625 712.992188 240.472656 711.746094 236.199219 710.078125 C 231.882812 708.59375 228.144531 706.488281 225.019531 704.457031 C 221.886719 702.398438 219.554688 700.023438 217.90625 697.925781 C 216.230469 695.824219 215.417969 693.835938 215 692.5 C 214.582031 691.140625 214.5625 690.394531 214.5625 690.394531 " fill-opacity="1" fill-rule="nonzero"/><path fill="rgb(85.879517%, 50.19989%, 39.219666%)" d="M 93.382812 698.484375 C 96.300781 698.089844 99.242188 697.882812 102.195312 697.789062 C 105.144531 697.691406 108.097656 697.652344 111.058594 697.71875 C 116.972656 697.898438 122.882812 698.464844 128.75 699.476562 C 134.617188 700.46875 140.414062 702.007812 146.0625 704.074219 C 148.859375 705.167969 151.617188 706.398438 154.304688 707.800781 C 155.617188 708.539062 156.964844 709.25 158.230469 710.078125 C 159.542969 710.851562 160.765625 711.78125 162.003906 712.664062 L 160.265625 712.308594 C 163.433594 711.554688 166.550781 710.886719 169.710938 710.277344 C 172.863281 709.648438 176.015625 709.085938 179.195312 708.601562 C 182.367188 708.121094 185.546875 707.644531 188.734375 707.28125 C 191.914062 706.851562 195.121094 706.617188 198.316406 706.324219 C 201.523438 706.125 204.722656 705.851562 207.929688 705.804688 C 211.136719 705.6875 214.363281 705.734375 217.570312 705.769531 C 220.777344 705.960938 223.984375 706.042969 227.171875 706.425781 C 228.765625 706.597656 230.359375 706.6875 231.945312 706.980469 L 236.671875 707.78125 L 231.890625 707.582031 C 230.304688 707.464844 228.703125 707.507812 227.117188 707.480469 C 223.9375 707.410156 220.757812 707.628906 217.585938 707.726562 C 214.417969 707.984375 211.253906 708.101562 208.09375 708.457031 C 204.941406 708.730469 201.789062 709.113281 198.636719 709.476562 C 192.351562 710.332031 186.082031 711.261719 179.84375 712.417969 C 173.621094 713.585938 167.359375 714.796875 161.265625 716.316406 L 160.335938 716.554688 L 159.527344 715.96875 C 157.230469 714.320312 154.863281 712.773438 152.363281 711.40625 C 149.859375 710.058594 147.261719 708.867188 144.613281 707.792969 C 141.941406 706.734375 139.238281 705.769531 136.484375 704.921875 C 133.714844 704.113281 130.917969 703.390625 128.09375 702.71875 C 122.445312 701.460938 116.699219 700.476562 110.902344 699.804688 C 108.007812 699.4375 105.089844 699.136719 102.175781 698.917969 C 99.25 698.726562 96.316406 698.554688 93.382812 698.484375 " fill-opacity="1" fill-rule="nonzero"/><path fill="rgb(85.879517%, 50.19989%, 39.219666%)" d="M 73.886719 698.328125 C 70.132812 699.859375 66.597656 701.90625 63.546875 704.457031 C 62.027344 705.742188 60.640625 707.171875 59.546875 708.785156 C 58.445312 710.378906 57.660156 712.164062 57.34375 714.011719 C 57.1875 714.933594 57.144531 715.859375 57.179688 716.789062 L 57.332031 718.183594 L 57.660156 719.550781 C 57.953125 720.441406 58.226562 721.34375 58.683594 722.191406 C 59.066406 723.058594 59.574219 723.867188 60.09375 724.679688 C 60.59375 725.496094 61.234375 726.246094 61.796875 727.019531 C 62.445312 727.746094 63.0625 728.503906 63.738281 729.203125 C 65.097656 730.617188 66.542969 731.957031 68.03125 733.25 L 67.464844 732.921875 C 79.527344 736.753906 91.582031 740.644531 103.597656 744.605469 C 115.640625 748.503906 127.628906 752.578125 139.636719 756.574219 L 139.335938 756.492188 C 149.296875 758.632812 159.214844 760.9375 169.15625 763.160156 C 179.09375 765.402344 189.035156 767.640625 198.945312 769.984375 L 228.703125 776.941406 L 258.421875 784.082031 L 257.683594 784.011719 C 261.882812 783.820312 266.144531 783.574219 270.371094 783.246094 C 274.609375 782.960938 278.84375 782.589844 283.082031 782.195312 C 287.308594 781.824219 291.546875 781.40625 295.773438 780.941406 C 300 780.492188 304.238281 780.101562 308.453125 779.511719 L 321.128906 777.917969 L 333.753906 776.003906 L 340.078125 775.066406 L 346.371094 773.925781 L 358.980469 771.730469 L 346.582031 774.964844 L 340.367188 776.53125 L 334.109375 777.90625 L 321.566406 780.558594 L 308.9375 782.816406 C 304.726562 783.601562 300.5 784.191406 296.265625 784.839844 C 292.039062 785.484375 287.800781 786.113281 283.554688 786.597656 C 279.308594 787.132812 275.054688 787.644531 270.792969 788.070312 C 266.527344 788.535156 262.28125 788.929688 257.964844 789.265625 L 257.644531 789.285156 L 257.246094 789.203125 L 227.378906 782.679688 L 197.570312 775.976562 C 187.621094 773.761719 177.703125 771.457031 167.789062 769.136719 C 157.867188 766.804688 147.9375 764.5625 138.035156 762.140625 L 137.851562 762.105469 L 137.734375 762.058594 C 125.828125 757.785156 113.882812 753.589844 102.003906 749.207031 C 90.105469 744.898438 78.234375 740.5 66.378906 736.0625 L 66.015625 735.925781 L 65.816406 735.734375 C 64.3125 734.289062 62.835938 732.820312 61.480469 731.21875 C 60.804688 730.417969 60.183594 729.570312 59.539062 728.742188 C 58.964844 727.847656 58.335938 727 57.824219 726.0625 C 57.304688 725.125 56.804688 724.195312 56.414062 723.183594 C 55.96875 722.210938 55.703125 721.144531 55.429688 720.097656 L 55.15625 718.492188 L 55.066406 716.855469 C 55.082031 715.75 55.191406 714.660156 55.464844 713.601562 C 55.996094 711.480469 57.042969 709.550781 58.355469 707.902344 C 59.667969 706.25 61.234375 704.847656 62.902344 703.636719 C 66.269531 701.25 70.015625 699.53125 73.886719 698.328125 " fill-opacity="1" fill-rule="nonzero"/><path fill="rgb(92.158508%, 72.938538%, 64.309692%)" d="M 260.351562 667.941406 C 260.351562 667.941406 262.964844 694.328125 255.121094 702.355469 C 247.277344 710.378906 219.683594 697.234375 224.335938 676.75 C 224.335938 676.75 227.816406 661.613281 260.351562 667.941406 " fill-opacity="1" fill-rule="nonzero"/><path fill="rgb(30.198669%, 43.139648%, 46.669006%)" d="M 537.917969 638.039062 L 537.917969 806.890625 L 809.886719 806.890625 L 809.886719 605.757812 L 537.917969 638.039062 " fill-opacity="1" fill-rule="nonzero"/><path fill="rgb(90.979004%, 50.979614%, 11.369324%)" d="M 274.492188 421.789062 C 282.488281 412.351562 287.320312 400.140625 287.320312 386.804688 C 287.320312 356.882812 263.058594 332.628906 233.128906 332.628906 C 203.203125 332.628906 178.929688 356.882812 178.929688 386.804688 C 178.929688 400.140625 183.769531 412.351562 191.757812 421.789062 L 274.492188 421.789062 " fill-opacity="1" fill-rule="nonzero"/><path fill="rgb(91.758728%, 63.139343%, 19.219971%)" d="M 271.175781 421.789062 C 279.648438 412.582031 284.832031 400.304688 284.832031 386.804688 C 284.832031 358.257812 261.679688 335.113281 233.128906 335.113281 C 204.578125 335.113281 181.425781 358.257812 181.425781 386.804688 C 181.425781 400.304688 186.601562 412.582031 195.074219 421.789062 L 271.175781 421.789062 " fill-opacity="1" fill-rule="nonzero"/><path fill="rgb(69.799805%, 39.608765%, 11.369324%)" d="M 208.75 421.789062 L 257.507812 421.789062 C 268.550781 414.082031 275.804688 401.296875 275.804688 386.804688 C 275.804688 363.242188 256.699219 344.140625 233.128906 344.140625 C 209.5625 344.140625 190.457031 363.242188 190.457031 386.804688 C 190.457031 401.296875 197.699219 414.082031 208.75 421.789062 " fill-opacity="1" fill-rule="nonzero"/><path fill="rgb(90.979004%, 50.979614%, 11.369324%)" d="M 208.769531 421.789062 L 257.507812 421.789062 C 268.550781 414.082031 275.804688 401.296875 275.804688 386.804688 C 275.804688 386.222656 275.785156 385.648438 275.757812 385.066406 C 273.070312 364.089844 255.160156 347.875 233.449219 347.875 C 209.878906 347.875 190.773438 366.976562 190.773438 390.539062 C 190.773438 391.121094 190.792969 391.703125 190.820312 392.277344 C 192.378906 404.492188 199.136719 415.066406 208.769531 421.789062 " fill-opacity="1" fill-rule="nonzero"/><path fill="rgb(73.728943%, 36.859131%, 30.589294%)" d="M 103.261719 144.023438 C 103.261719 144.023438 70.160156 130.789062 84.730469 107.625 C 84.730469 107.625 125.800781 116.230469 135.710938 114.902344 C 145.613281 113.582031 264.816406 116.230469 276.859375 112.261719 C 288.902344 108.28125 242.257812 135.414062 242.257812 135.414062 L 103.261719 144.023438 " fill-opacity="1" fill-rule="nonzero"/><path fill="rgb(81.17981%, 42.349243%, 32.939148%)" d="M 206.972656 172.285156 C 206.972656 172.285156 171.878906 178.824219 139 167.839844 C 139 167.839844 115.175781 177.441406 79.425781 167.839844 C 79.425781 167.839844 15.078125 187.695312 15.488281 145.34375 C 15.488281 145.34375 3.636719 136.078125 79.097656 134.75 C 79.097656 134.75 132.839844 126.816406 152.472656 128.136719 C 172.097656 129.457031 206.78125 134.75 245.691406 132.109375 C 284.621094 129.457031 206.972656 172.285156 206.972656 172.285156 " fill-opacity="1" fill-rule="nonzero"/><path fill="rgb(89.019775%, 49.409485%, 37.249756%)" d="M 234.3125 193.398438 C 234.3125 193.398438 205.652344 196.59375 176.296875 208.5 C 176.296875 208.5 137.679688 230.996094 115.175781 233.648438 C 115.175781 233.648438 46.328125 289.234375 18.53125 244.230469 C 18.53125 244.230469 0 240.632812 54.28125 221.925781 C 54.28125 221.925781 113.445312 189.972656 124.230469 182.03125 C 135.027344 174.089844 227.964844 143.648438 245.691406 135.707031 L 234.3125 193.398438 " fill-opacity="1" fill-rule="nonzero"/><path fill="rgb(94.119263%, 61.569214%, 47.44873%)" d="M 206.519531 280.417969 C 206.519531 280.417969 217.105469 273.277344 221.304688 246.917969 C 221.304688 246.917969 259.90625 211.078125 298.324219 202.460938 C 298.324219 202.460938 312.398438 211.570312 319.039062 238.867188 C 319.039062 238.867188 322.273438 263.011719 294.816406 289.699219 C 294.816406 289.699219 251.242188 326.160156 267.140625 348.523438 C 267.140625 348.523438 274.847656 364.699219 307.605469 335.917969 C 307.605469 335.917969 330.511719 312.992188 345.078125 299.757812 C 359.628906 286.523438 397.144531 258.285156 411.703125 237.109375 C 426.261719 215.933594 451.414062 196.960938 465.984375 170.492188 C 465.984375 170.492188 484.515625 159.898438 507.015625 157.257812 C 529.519531 154.613281 618.21875 151.964844 651.316406 146.664062 C 684.40625 141.371094 609.628906 29.859375 609.628906 29.859375 C 609.628906 29.859375 413.699219 68.675781 350.164062 89.855469 C 350.164062 89.855469 242.484375 119.855469 230.132812 132.207031 C 230.132812 132.207031 206.109375 144.558594 206.644531 163.96875 C 206.644531 163.96875 180.707031 222.207031 171.878906 239.851562 C 171.878906 239.851562 164.828125 250.445312 163.0625 268.085938 L 152.472656 386.222656 C 152.472656 386.222656 187.769531 396.8125 194.839844 327.984375 C 194.839844 327.984375 203.867188 312.992188 206.519531 280.417969 " fill-opacity="1" fill-rule="nonzero"/><path fill="rgb(92.158508%, 72.938538%, 64.309692%)" d="M 152.472656 386.222656 L 155.898438 347.882812 C 162.011719 349.058594 168.125 354.890625 168.125 354.890625 C 165.066406 369.980469 158.714844 382.203125 155.308594 386.703125 C 153.539062 386.53125 152.472656 386.222656 152.472656 386.222656 " fill-opacity="1" fill-rule="nonzero"/><path fill="rgb(92.158508%, 72.938538%, 64.309692%)" d="M 269.105469 350.808594 C 269.691406 345.242188 274.328125 335.570312 295.035156 323.566406 C 295.035156 323.566406 305.476562 326.605469 312.335938 331.390625 C 309.410156 334.183594 307.605469 335.917969 307.605469 335.917969 C 283.574219 357.027344 273.023438 353.949219 269.105469 350.808594 " fill-opacity="1" fill-rule="nonzero"/><path fill="rgb(90.979004%, 62.748718%, 52.549744%)" d="M 16.894531 243.628906 C 13.996094 242.046875 11.699219 236.828125 52.132812 222.671875 C 57.179688 223.929688 61.480469 226.5625 56.257812 231.0625 C 48.980469 237.34375 16.902344 243.621094 16.894531 243.628906 " fill-opacity="1" fill-rule="nonzero"/><path fill="rgb(85.099792%, 53.329468%, 44.709778%)" d="M 27.207031 145.386719 C 22.824219 145.386719 18.570312 145.234375 15.050781 144.8125 C 14.070312 143.164062 14.332031 138 52.734375 135.707031 C 54.308594 137.992188 55.921875 141.308594 54.492188 144.023438 C 54.492188 144.023438 40.242188 145.386719 27.207031 145.386719 " fill-opacity="1" fill-rule="nonzero"/><g clip-path="url(#id1)"><path fill="rgb(30.198669%, 43.139648%, 46.669006%)" d="M 784.878906 2.6875 L 784.878906 179.917969 L 501.242188 187.078125 L 472.988281 36.933594 L 784.878906 2.6875 " fill-opacity="1" fill-rule="nonzero"/></g></svg>