<svg xmlns="http://www.w3.org/2000/svg" xmlns:xlink="http://www.w3.org/1999/xlink" width="1080" zoomAndPan="magnify" viewBox="0 0 810 809.999993" height="1080" preserveAspectRatio="xMidYMid meet" version="1.0"><path fill="rgb(27.059937%, 25.878906%, 26.269531%)" d="M 492.359375 588.753906 L 554.21875 720.121094 L 576.515625 709.621094 L 518.648438 586.738281 C 513.070312 588.433594 507.25 589.425781 501.28125 589.425781 C 498.273438 589.425781 495.289062 589.191406 492.359375 588.753906 Z M 492.359375 588.753906 " fill-opacity="1" fill-rule="nonzero"/><path fill="rgb(27.059937%, 25.878906%, 26.269531%)" d="M 442.886719 541.753906 L 400.03125 547.5625 L 323.140625 574.46875 L 147.039062 320.796875 L 126.789062 334.851562 L 311.132812 600.390625 L 355.488281 786.96875 L 379.472656 781.273438 L 338.105469 607.308594 L 454.382812 566.617188 C 448.589844 559.246094 444.734375 550.710938 442.886719 541.753906 Z M 442.886719 541.753906 " fill-opacity="1" fill-rule="nonzero"/><path fill="rgb(27.059937%, 25.878906%, 26.269531%)" d="M 171.605469 178.925781 C 199.78125 221.476562 257.128906 233.140625 299.6875 204.972656 C 342.253906 176.804688 353.917969 119.476562 325.742188 76.921875 C 297.566406 34.371094 240.230469 22.703125 197.660156 50.875 C 155.097656 79.039062 143.433594 136.367188 171.605469 178.925781 Z M 313.71875 121.738281 C 314.4375 144.464844 303.800781 167.050781 283.484375 180.496094 C 263.167969 193.941406 238.214844 194.90625 217.570312 185.367188 Z M 313.71875 121.738281 " fill-opacity="1" fill-rule="nonzero"/><path fill="rgb(27.059937%, 25.878906%, 26.269531%)" d="M 634.941406 444.113281 L 572.707031 532.203125 L 709.570312 715.542969 C 722.496094 732.714844 744.117188 739.488281 763.695312 734.332031 C 769.941406 732.6875 775.984375 729.824219 781.46875 725.703125 C 804.128906 708.660156 808.675781 676.480469 791.625 653.824219 Z M 634.941406 444.113281 " fill-opacity="1" fill-rule="nonzero"/><path fill="rgb(27.059937%, 25.878906%, 26.269531%)" d="M 452.503906 495.199219 L 505.589844 420.058594 L 419.507812 431.613281 L 424.132812 421.664062 L 512.957031 409.628906 L 545.929688 362.953125 L 555.148438 366.277344 L 460.21875 500.648438 C 444.1875 523.34375 449.59375 554.734375 472.289062 570.761719 C 481.105469 576.992188 491.242188 579.980469 501.277344 579.980469 C 517.070312 579.980469 532.617188 572.570312 542.421875 558.691406 L 653.316406 401.722656 L 680.714844 362.941406 C 680.878906 362.710938 681.003906 362.46875 681.164062 362.234375 C 681.6875 361.460938 682.175781 360.671875 682.65625 359.871094 C 683.054688 359.210938 683.457031 358.550781 683.828125 357.875 C 684.210938 357.175781 684.554688 356.453125 684.902344 355.730469 C 685.28125 354.941406 685.664062 354.15625 686 353.359375 C 686.277344 352.707031 686.511719 352.035156 686.757812 351.375 C 687.082031 350.503906 687.410156 349.640625 687.683594 348.753906 C 687.890625 348.078125 688.054688 347.386719 688.234375 346.703125 C 688.464844 345.832031 688.703125 344.960938 688.886719 344.082031 C 689.046875 343.300781 689.15625 342.515625 689.28125 341.726562 C 689.402344 340.933594 689.542969 340.144531 689.628906 339.347656 C 689.726562 338.457031 689.765625 337.558594 689.8125 336.65625 C 689.851562 335.945312 689.90625 335.242188 689.917969 334.535156 C 689.929688 333.609375 689.878906 332.679688 689.84375 331.75 C 689.808594 331.042969 689.792969 330.339844 689.734375 329.640625 C 689.660156 328.769531 689.535156 327.898438 689.414062 327.027344 C 689.308594 326.242188 689.203125 325.457031 689.058594 324.679688 C 688.914062 323.914062 688.730469 323.152344 688.546875 322.386719 C 688.339844 321.492188 688.117188 320.605469 687.859375 319.722656 C 687.777344 319.445312 687.730469 319.171875 687.644531 318.894531 C 687.511719 318.476562 687.332031 318.085938 687.191406 317.675781 C 686.878906 316.765625 686.554688 315.863281 686.191406 314.964844 C 685.917969 314.296875 685.628906 313.640625 685.328125 312.988281 C 684.945312 312.144531 684.542969 311.320312 684.113281 310.5 C 683.761719 309.832031 683.398438 309.175781 683.019531 308.53125 C 682.574219 307.769531 682.113281 307.023438 681.625 306.285156 C 681.195312 305.632812 680.757812 304.992188 680.296875 304.363281 C 679.792969 303.675781 679.28125 303.003906 678.742188 302.339844 C 678.234375 301.707031 677.710938 301.09375 677.175781 300.492188 C 676.628906 299.878906 676.066406 299.273438 675.484375 298.6875 C 674.890625 298.082031 674.28125 297.503906 673.660156 296.933594 C 673.074219 296.394531 672.480469 295.867188 671.859375 295.347656 C 671.183594 294.789062 670.5 294.257812 669.796875 293.730469 C 669.40625 293.4375 669.050781 293.113281 668.648438 292.828125 C 668.378906 292.636719 668.101562 292.496094 667.828125 292.308594 C 667.15625 291.855469 666.464844 291.429688 665.769531 291.007812 C 665.007812 290.542969 664.246094 290.078125 663.464844 289.660156 C 662.882812 289.34375 662.285156 289.0625 661.6875 288.769531 C 660.78125 288.328125 659.871094 287.882812 658.949219 287.496094 C 658.4375 287.285156 657.917969 287.101562 657.398438 286.910156 C 656.386719 286.523438 655.371094 286.144531 654.339844 285.828125 C 653.824219 285.671875 653.300781 285.550781 652.78125 285.40625 C 651.746094 285.128906 650.714844 284.847656 649.667969 284.632812 C 649.054688 284.507812 648.433594 284.425781 647.8125 284.324219 C 646.855469 284.167969 645.902344 284.003906 644.941406 283.898438 C 644.199219 283.820312 643.445312 283.792969 642.695312 283.742188 C 641.839844 283.691406 640.988281 283.628906 640.136719 283.621094 C 639.324219 283.613281 638.507812 283.652344 637.695312 283.6875 C 636.878906 283.71875 636.066406 283.738281 635.25 283.8125 C 634.464844 283.882812 633.679688 283.996094 632.894531 284.105469 C 632.027344 284.222656 631.164062 284.339844 630.300781 284.5 C 629.59375 284.628906 628.890625 284.804688 628.191406 284.96875 C 627.242188 285.1875 626.296875 285.421875 625.359375 285.699219 C 625.105469 285.773438 624.847656 285.816406 624.589844 285.894531 L 418.386719 350.382812 C 392.554688 303.492188 389.886719 259.167969 394.796875 206.125 C 405.375 201.964844 416.867188 197.257812 428.386719 192.195312 C 489.019531 165.519531 527.921875 140.183594 520.726562 103.214844 C 513.484375 66.035156 465.488281 61.042969 444.988281 58.910156 C 415.722656 55.882812 375.425781 55.503906 322.523438 57.796875 C 326.550781 62.039062 330.28125 66.664062 333.621094 71.707031 C 344.023438 87.417969 349.460938 104.976562 350.359375 122.550781 C 381.886719 121.660156 404.929688 122.007812 421.683594 122.917969 C 401.230469 132.863281 374.636719 144.015625 347.074219 154.039062 C 340.902344 177.328125 326.535156 198.535156 304.902344 212.847656 C 268.191406 237.140625 221.347656 234.472656 187.875 209.628906 C 187.335938 209.941406 186.785156 210.230469 186.257812 210.574219 C 163.433594 225.457031 139.332031 239.703125 118.164062 251.113281 C 130.601562 235.988281 147.347656 216.738281 169.816406 192.386719 C 167.675781 189.765625 165.640625 187.015625 163.730469 184.132812 C 150.796875 164.597656 145.527344 142.195312 147.148438 120.460938 C 101.417969 168.617188 67.78125 207.230469 47.042969 235.429688 C 31.117188 257.078125 1.476562 297.378906 25.941406 327.058594 C 34.722656 337.714844 46.289062 342.015625 59.667969 342.015625 C 85.40625 342.015625 117.8125 326.066406 149.78125 308.722656 C 158.523438 303.980469 167.09375 299.121094 175.121094 294.449219 C 205.132812 381.941406 250.503906 443.589844 314.234375 520.378906 C 317.046875 523.773438 320.230469 526.609375 323.601562 528.925781 C 334.472656 539.144531 349.671875 544.574219 365.613281 542.433594 L 368.132812 542.097656 L 441.691406 532.226562 C 441.140625 519.453125 444.582031 506.417969 452.503906 495.199219 Z M 452.503906 495.199219 " fill-opacity="1" fill-rule="nonzero"/></svg>