<svg xmlns="http://www.w3.org/2000/svg" xmlns:xlink="http://www.w3.org/1999/xlink" width="1080" zoomAndPan="magnify" viewBox="0 0 810 809.999993" height="1080" preserveAspectRatio="xMidYMid meet" version="1.0"><defs><clipPath id="id1"><path d="M 13 20 L 797 20 L 797 802.835938 L 13 802.835938 Z M 13 20 " clip-rule="nonzero"/></clipPath></defs><path fill="rgb(24.308777%, 18.429565%, 20.388794%)" d="M 546.65625 592.644531 L 514.191406 592.644531 C 510.324219 592.644531 507.191406 589.304688 507.191406 585.183594 L 507.191406 481.046875 L 302.65625 481.046875 L 302.65625 585.183594 C 302.65625 589.304688 299.519531 592.644531 295.65625 592.644531 L 263.183594 592.644531 C 259.320312 592.644531 256.1875 589.304688 256.1875 585.183594 L 256.1875 238.234375 C 256.1875 234.113281 259.320312 230.773438 263.183594 230.773438 L 295.65625 230.773438 C 299.519531 230.773438 302.65625 234.113281 302.65625 238.234375 L 302.65625 339.683594 L 507.191406 339.683594 L 507.191406 238.234375 C 507.191406 234.113281 510.324219 230.773438 514.191406 230.773438 L 546.660156 230.773438 C 550.527344 230.773438 553.660156 234.113281 553.660156 238.234375 L 553.65625 585.183594 C 553.65625 589.304688 550.523438 592.644531 546.65625 592.644531 Z M 304.851562 439.296875 L 509.382812 439.296875 L 509.382812 381.640625 L 304.851562 381.640625 Z M 304.851562 439.296875 " fill-opacity="1" fill-rule="nonzero"/><g clip-path="url(#id1)"><path fill="rgb(24.308777%, 18.429565%, 20.388794%)" d="M 782.609375 310.515625 C 755.578125 209.640625 690.878906 125.332031 600.429688 73.113281 C 509.976562 20.898438 404.605469 7.027344 303.722656 34.054688 C 202.839844 61.085938 118.519531 125.78125 66.296875 216.222656 C 14.078125 306.664062 0.203125 412.027344 27.238281 512.902344 C 54.269531 613.777344 118.96875 698.085938 209.417969 750.304688 C 269.671875 785.085938 336.53125 802.851562 404.285156 802.851562 C 438.246094 802.851562 472.441406 798.386719 506.125 789.363281 C 607.007812 762.332031 691.328125 697.636719 743.546875 607.195312 C 795.769531 516.753906 809.640625 411.390625 782.609375 310.515625 Z M 762.078125 494.605469 L 734.851562 487.308594 C 728.308594 485.558594 721.582031 489.441406 719.828125 495.984375 C 718.074219 502.527344 721.957031 509.253906 728.503906 511.007812 L 755.675781 518.285156 C 747.589844 544.710938 736.460938 570.40625 722.300781 594.929688 C 708.171875 619.398438 691.523438 641.84375 672.730469 662.023438 L 654.960938 644.257812 C 654.433594 643.320312 653.769531 642.441406 652.976562 641.640625 C 648.203125 636.835938 640.417969 636.824219 635.609375 641.597656 L 635.308594 641.894531 C 632.996094 644.191406 631.691406 647.316406 631.6875 650.578125 C 631.683594 653.835938 632.972656 656.964844 635.28125 659.269531 L 655.425781 679.414062 C 614.902344 717.425781 565.976562 745.773438 511.566406 762.273438 L 504.25 734.980469 C 503.40625 731.828125 501.34375 729.144531 498.511719 727.519531 C 495.683594 725.894531 492.324219 725.460938 489.179688 726.320312 L 488.796875 726.425781 C 482.25 728.167969 478.351562 734.886719 480.09375 741.433594 C 480.398438 742.570312 480.851562 743.628906 481.429688 744.59375 L 487.867188 768.621094 C 432.523438 781.53125 376.007812 781.449219 321.929688 768.808594 L 329.230469 741.574219 C 330.980469 735.03125 327.097656 728.304688 320.554688 726.550781 C 314.007812 724.800781 307.285156 728.679688 305.53125 735.222656 L 298.246094 762.402344 C 271.851562 754.320312 246.183594 743.199219 221.683594 729.058594 C 197.175781 714.910156 174.703125 698.234375 154.496094 679.40625 L 174.636719 659.269531 C 179.429688 654.480469 179.429688 646.714844 174.636719 641.921875 L 174.300781 641.59375 C 169.511719 636.804688 161.742188 636.804688 156.953125 641.59375 C 156.125 642.421875 155.441406 643.339844 154.902344 644.3125 L 137.109375 662.101562 C 99.117188 621.582031 70.792969 572.667969 54.304688 518.269531 L 81.414062 511.007812 C 87.960938 509.253906 91.84375 502.527344 90.089844 495.984375 C 88.335938 489.441406 81.613281 485.558594 75.066406 487.308594 L 47.960938 494.570312 C 35.0625 439.226562 35.15625 382.710938 47.8125 328.632812 L 75.976562 336.179688 C 77.042969 336.464844 78.109375 336.601562 79.160156 336.601562 C 84.578125 336.601562 89.53125 332.984375 91.003906 327.503906 C 92.753906 320.960938 88.871094 314.234375 82.328125 312.484375 L 54.222656 304.953125 C 62.304688 278.59375 73.417969 252.953125 87.546875 228.488281 C 101.703125 203.964844 118.394531 181.480469 137.234375 161.269531 L 157.671875 181.707031 C 160.066406 184.101562 163.207031 185.296875 166.347656 185.296875 C 169.484375 185.296875 172.625 184.101562 175.019531 181.707031 C 179.8125 176.914062 179.8125 169.148438 175.019531 164.359375 L 154.542969 143.882812 C 195.042969 105.929688 243.925781 77.628906 298.28125 61.144531 L 305.734375 88.960938 C 307.207031 94.441406 312.160156 98.054688 317.578125 98.054688 C 318.628906 98.054688 319.699219 97.921875 320.761719 97.636719 C 327.304688 95.882812 331.1875 89.15625 329.433594 82.613281 L 321.972656 54.769531 C 349.679688 48.308594 377.679688 45.109375 405.519531 45.109375 C 433.292969 45.109375 460.910156 48.292969 487.917969 54.605469 L 480.375 82.757812 C 478.621094 89.300781 482.503906 96.027344 489.046875 97.777344 C 490.113281 98.0625 491.179688 98.199219 492.230469 98.199219 C 497.648438 98.199219 502.601562 94.585938 504.070312 89.105469 L 511.605469 61 C 537.996094 69.082031 563.664062 80.21875 588.160156 94.359375 C 612.648438 108.496094 635.105469 125.15625 655.296875 143.960938 L 634.898438 164.359375 C 630.105469 169.148438 630.105469 176.914062 634.898438 181.707031 C 637.292969 184.101562 640.433594 185.296875 643.570312 185.296875 C 646.710938 185.296875 649.851562 184.101562 652.246094 181.707031 L 672.6875 161.265625 C 710.671875 201.761719 738.996094 250.644531 755.496094 305.003906 L 727.589844 312.484375 C 721.046875 314.234375 717.164062 320.960938 718.917969 327.503906 C 720.386719 332.984375 725.339844 336.601562 730.757812 336.601562 C 731.808594 336.601562 732.878906 336.464844 733.941406 336.179688 L 761.851562 328.699219 C 774.769531 384.03125 774.703125 440.535156 762.078125 494.605469 Z M 762.078125 494.605469 " fill-opacity="1" fill-rule="nonzero"/></g><path fill="rgb(24.308777%, 18.429565%, 20.388794%)" d="M 742.683594 399.816406 L 715.226562 399.816406 C 714.355469 377.125 710.972656 354.1875 704.851562 331.351562 C 698.757812 308.613281 690.265625 287.152344 679.738281 267.140625 L 703.28125 253.550781 C 709.148438 250.164062 711.160156 242.660156 707.773438 236.792969 C 704.386719 230.925781 696.882812 228.921875 691.015625 232.304688 L 667.476562 245.894531 C 642.515625 206.433594 609.191406 173.65625 570.621094 149.324219 L 584.386719 125.480469 C 587.773438 119.613281 585.761719 112.113281 579.894531 108.726562 C 574.03125 105.339844 566.527344 107.347656 563.140625 113.214844 L 549.375 137.054688 C 508.980469 115.796875 463.875 103.34375 417.175781 101.464844 L 417.175781 74.339844 C 417.175781 67.566406 411.6875 62.074219 404.910156 62.074219 C 398.136719 62.074219 392.644531 67.566406 392.644531 74.339844 L 392.644531 101.457031 C 370.078125 102.347656 347.269531 105.722656 324.558594 111.808594 C 301.855469 117.890625 280.421875 126.367188 260.4375 136.867188 L 246.777344 113.214844 C 243.390625 107.347656 235.886719 105.339844 230.023438 108.726562 C 224.15625 112.113281 222.144531 119.613281 225.53125 125.480469 L 239.183594 149.125 C 199.699219 174.074219 166.90625 207.390625 142.554688 245.960938 L 118.902344 232.304688 C 113.035156 228.917969 105.535156 230.925781 102.144531 236.792969 C 98.757812 242.660156 100.769531 250.164062 106.636719 253.550781 L 130.28125 267.199219 C 108.941406 307.714844 96.46875 352.964844 94.640625 399.816406 L 67.140625 399.816406 C 60.363281 399.816406 54.871094 405.308594 54.871094 412.082031 C 54.871094 418.855469 60.363281 424.347656 67.140625 424.347656 L 94.65625 424.347656 C 95.570312 446.792969 98.941406 469.476562 104.996094 492.066406 C 111.101562 514.847656 119.617188 536.347656 130.171875 556.390625 L 106.757812 569.90625 C 100.890625 573.292969 98.882812 580.796875 102.269531 586.664062 C 104.542969 590.597656 108.664062 592.796875 112.902344 592.796875 C 114.984375 592.796875 117.09375 592.265625 119.027344 591.152344 L 142.457031 577.625 C 167.421875 617.046875 200.710938 649.820312 239.265625 674.132812 L 227.101562 695.195312 C 226.296875 695.976562 225.585938 696.882812 224.996094 697.902344 C 221.621094 703.777344 223.648438 711.273438 229.523438 714.648438 L 229.957031 714.894531 C 231.875 715.988281 233.96875 716.511719 236.03125 716.511719 C 240.273438 716.511719 244.394531 714.308594 246.667969 710.375 L 260.511719 686.398438 C 300.886719 707.640625 345.964844 720.070312 392.644531 721.945312 L 392.644531 749.824219 C 392.644531 756.597656 398.136719 762.089844 404.910156 762.089844 C 411.6875 762.089844 417.175781 756.597656 417.175781 749.824219 L 417.175781 721.972656 C 439.75 721.078125 462.574219 717.695312 485.289062 711.609375 C 508.015625 705.519531 529.472656 697.035156 549.476562 686.515625 L 563.25 710.375 C 565.519531 714.304688 569.652344 716.492188 573.898438 716.492188 C 575.976562 716.492188 578.078125 715.96875 580.003906 714.867188 L 580.394531 714.648438 C 586.269531 711.273438 588.277344 703.785156 584.902344 697.914062 C 584.328125 696.914062 583.636719 696.027344 582.851562 695.257812 L 570.726562 674.257812 C 610.164062 649.324219 642.914062 616.03125 667.25 577.503906 L 690.894531 591.152344 C 692.824219 592.269531 694.933594 592.796875 697.015625 592.796875 C 701.253906 592.796875 705.378906 590.597656 707.648438 586.664062 C 711.035156 580.796875 709.027344 573.292969 703.160156 569.90625 L 679.527344 556.261719 C 700.769531 515.949219 713.273438 470.957031 715.199219 424.347656 L 742.683594 424.347656 C 749.457031 424.347656 754.949219 418.855469 754.949219 412.082031 C 754.949219 405.308594 749.457031 399.816406 742.683594 399.816406 Z M 548.214844 659.183594 C 548.125 659.234375 548.03125 659.273438 547.9375 659.324219 C 547.835938 659.382812 547.746094 659.453125 547.648438 659.515625 C 526.546875 671.671875 503.550781 681.320312 478.9375 687.914062 C 454.238281 694.53125 429.425781 697.691406 404.988281 697.691406 C 303.496094 697.683594 208.738281 643.15625 157.707031 555.480469 C 157.601562 555.269531 157.503906 555.054688 157.382812 554.84375 C 157.25 554.617188 157.101562 554.402344 156.953125 554.1875 C 144.859375 533.152344 135.265625 510.238281 128.695312 485.71875 C 122.351562 462.050781 119.191406 438.269531 118.9375 414.824219 C 119.140625 413.941406 119.257812 413.027344 119.257812 412.082031 C 119.257812 411.148438 119.144531 410.238281 118.945312 409.363281 C 120.011719 284.058594 204.101562 169.476562 330.90625 135.503906 C 355.609375 128.886719 380.421875 125.726562 404.859375 125.726562 C 531.109375 125.726562 646.957031 210.097656 681.152344 337.699219 C 715.3125 465.167969 657.324219 595.984375 548.214844 659.183594 Z M 548.214844 659.183594 " fill-opacity="1" fill-rule="nonzero"/></svg>