<svg xmlns="http://www.w3.org/2000/svg" xmlns:xlink="http://www.w3.org/1999/xlink" width="1080" zoomAndPan="magnify" viewBox="0 0 810 809.999993" height="1080" preserveAspectRatio="xMidYMid meet" version="1.0"><defs><clipPath id="id1"><path d="M 661 586 L 802.59375 586 L 802.59375 810 L 661 810 Z M 661 586 " clip-rule="nonzero"/></clipPath><clipPath id="id2"><path d="M 7.59375 563 L 521 563 L 521 760 L 7.59375 760 Z M 7.59375 563 " clip-rule="nonzero"/></clipPath></defs><path fill="rgb(79.60968%, 50.588989%, 27.059937%)" d="M 270.238281 446.230469 C 277.46875 446.917969 284.691406 447.261719 291.863281 447.261719 C 343.675781 447.261719 393.433594 429.445312 433.894531 396.03125 C 479.957031 357.996094 508.445312 304.300781 514.113281 244.84375 C 519.785156 185.382812 501.953125 127.277344 463.90625 81.226562 C 425.863281 35.175781 372.152344 6.695312 312.679688 1.027344 C 305.453125 0.335938 298.230469 -0.00390625 291.058594 -0.00390625 C 239.246094 -0.00390625 189.484375 17.8125 149.023438 51.222656 C 102.964844 89.257812 74.472656 142.953125 68.804688 202.410156 C 63.136719 261.871094 80.964844 319.976562 119.015625 366.027344 C 157.058594 412.082031 210.765625 440.5625 270.238281 446.230469 Z M 291.460938 29.933594 C 398.289062 29.933594 485.203125 116.824219 485.203125 223.628906 C 485.203125 330.429688 398.289062 417.324219 291.460938 417.324219 C 184.632812 417.324219 97.71875 330.429688 97.71875 223.628906 C 97.71875 116.824219 184.628906 29.933594 291.460938 29.933594 Z M 291.460938 29.933594 " fill-opacity="1" fill-rule="nonzero"/><path fill="rgb(79.60968%, 50.588989%, 27.059937%)" d="M 203.394531 355.324219 L 203.394531 319.660156 L 174.183594 294.105469 C 170.363281 290.761719 168.171875 285.933594 168.171875 280.855469 L 168.171875 239.542969 C 161.480469 234.304688 157.160156 226.175781 157.160156 217.019531 C 157.160156 201.214844 169.976562 188.40625 185.78125 188.40625 C 201.589844 188.40625 214.402344 201.214844 214.402344 217.019531 C 214.402344 226.175781 210.089844 234.304688 203.394531 239.542969 L 203.394531 272.863281 L 232.605469 298.417969 C 236.429688 301.761719 238.621094 306.589844 238.621094 311.667969 L 238.621094 373.019531 C 249.84375 376.996094 261.636719 379.746094 273.847656 381.101562 L 273.847656 216.0625 C 254.582031 208.890625 240.824219 190.324219 240.824219 168.597656 C 240.824219 140.683594 263.535156 117.972656 291.460938 117.972656 C 319.382812 117.972656 342.097656 140.683594 342.097656 168.597656 C 342.097656 190.324219 328.335938 208.890625 309.074219 216.0625 L 309.074219 381.101562 C 321.285156 379.746094 333.078125 376.996094 344.296875 373.019531 L 344.296875 311.667969 C 344.296875 306.589844 346.492188 301.761719 350.3125 298.417969 L 379.523438 272.863281 L 379.523438 239.542969 C 372.832031 234.304688 368.515625 226.175781 368.515625 217.019531 C 368.515625 201.214844 381.328125 188.40625 397.136719 188.40625 C 412.945312 188.40625 425.757812 201.214844 425.757812 217.019531 C 425.757812 226.175781 421.441406 234.304688 414.75 239.542969 L 414.75 280.851562 C 414.75 285.929688 412.558594 290.757812 408.734375 294.105469 L 379.523438 319.660156 L 379.523438 355.324219 C 421.972656 326.859375 449.976562 278.453125 449.976562 223.625 C 449.976562 136.242188 378.867188 65.148438 291.460938 65.148438 C 204.054688 65.148438 132.945312 136.242188 132.945312 223.625 C 132.945312 278.457031 160.945312 326.863281 203.394531 355.324219 Z M 203.394531 355.324219 " fill-opacity="1" fill-rule="nonzero"/><path fill="rgb(79.60968%, 50.588989%, 27.059937%)" d="M 306.871094 168.601562 C 306.871094 169.613281 306.773438 170.613281 306.574219 171.605469 C 306.378906 172.597656 306.085938 173.5625 305.699219 174.496094 C 305.3125 175.433594 304.835938 176.320312 304.273438 177.160156 C 303.710938 178.003906 303.074219 178.78125 302.355469 179.496094 C 301.640625 180.210938 300.863281 180.851562 300.023438 181.410156 C 299.179688 181.972656 298.292969 182.449219 297.359375 182.835938 C 296.421875 183.222656 295.460938 183.515625 294.464844 183.710938 C 293.472656 183.910156 292.472656 184.007812 291.460938 184.007812 C 290.449219 184.007812 289.445312 183.910156 288.453125 183.710938 C 287.460938 183.515625 286.496094 183.222656 285.5625 182.835938 C 284.628906 182.449219 283.738281 181.972656 282.898438 181.410156 C 282.054688 180.851562 281.277344 180.210938 280.5625 179.496094 C 279.847656 178.78125 279.207031 178.003906 278.644531 177.160156 C 278.082031 176.320312 277.609375 175.433594 277.222656 174.496094 C 276.835938 173.5625 276.542969 172.597656 276.34375 171.605469 C 276.148438 170.613281 276.046875 169.613281 276.046875 168.601562 C 276.046875 167.589844 276.148438 166.585938 276.34375 165.59375 C 276.542969 164.601562 276.835938 163.640625 277.222656 162.703125 C 277.609375 161.769531 278.082031 160.882812 278.644531 160.039062 C 279.207031 159.199219 279.847656 158.421875 280.5625 157.707031 C 281.277344 156.992188 282.054688 156.351562 282.898438 155.789062 C 283.738281 155.226562 284.628906 154.753906 285.5625 154.367188 C 286.496094 153.980469 287.460938 153.6875 288.453125 153.488281 C 289.445312 153.292969 290.449219 153.195312 291.460938 153.195312 C 292.472656 153.195312 293.472656 153.292969 294.464844 153.488281 C 295.460938 153.6875 296.421875 153.980469 297.359375 154.367188 C 298.292969 154.753906 299.179688 155.226562 300.023438 155.789062 C 300.863281 156.351562 301.640625 156.992188 302.355469 157.707031 C 303.074219 158.421875 303.710938 159.199219 304.273438 160.039062 C 304.835938 160.882812 305.3125 161.769531 305.699219 162.703125 C 306.085938 163.640625 306.378906 164.601562 306.574219 165.59375 C 306.773438 166.585938 306.871094 167.589844 306.871094 168.601562 Z M 306.871094 168.601562 " fill-opacity="1" fill-rule="nonzero"/><g clip-path="url(#id1)"><path fill="rgb(79.60968%, 50.588989%, 27.059937%)" d="M 661.328125 586.449219 L 802.234375 586.449219 L 802.234375 810 L 661.328125 810 Z M 661.328125 586.449219 " fill-opacity="1" fill-rule="nonzero"/></g><g clip-path="url(#id2)"><path fill="rgb(79.60968%, 50.588989%, 27.059937%)" d="M 348.839844 570.761719 L 296.296875 585.769531 C 294.726562 586.21875 293.097656 586.449219 291.460938 586.449219 L 238.621094 586.449219 C 219.199219 586.449219 203.394531 602.25 203.394531 621.667969 L 309.074219 621.667969 C 318.800781 621.667969 326.6875 629.550781 326.6875 639.273438 C 326.6875 649 318.800781 656.882812 309.074219 656.882812 C 309.074219 656.882812 180.832031 656.210938 179.824219 655.847656 L 63.003906 616.917969 C 57.464844 615.074219 51.785156 614.171875 46.171875 614.171875 C 32.421875 614.171875 19.046875 619.570312 8.933594 629.679688 C 7.761719 630.847656 7.714844 632.164062 7.878906 633.0625 C 8.046875 633.960938 8.566406 635.171875 10.074219 635.84375 L 275.464844 753.765625 C 287.578125 759.152344 300.921875 761.003906 314.042969 759.128906 L 520.421875 729.652344 L 520.421875 598.058594 L 475.433594 578.785156 C 435.539062 561.6875 390.582031 558.839844 348.839844 570.761719 Z M 348.839844 570.761719 " fill-opacity="1" fill-rule="nonzero"/></g><path fill="rgb(79.60968%, 50.588989%, 27.059937%)" d="M 555.652344 586.449219 L 626.105469 586.449219 L 626.105469 810 L 555.652344 810 Z M 555.652344 586.449219 " fill-opacity="1" fill-rule="nonzero"/></svg>