<svg xmlns="http://www.w3.org/2000/svg" xmlns:xlink="http://www.w3.org/1999/xlink" width="1080" zoomAndPan="magnify" viewBox="0 0 810 809.999993" height="1080" preserveAspectRatio="xMidYMid meet" version="1.0"><defs><clipPath id="id1"><path d="M 285 92.136719 L 809.085938 92.136719 L 809.085938 717.371094 L 285 717.371094 Z M 285 92.136719 " clip-rule="nonzero"/></clipPath><clipPath id="id2"><path d="M 5 250 L 249 250 L 249 542 L 5 542 Z M 5 250 " clip-rule="nonzero"/></clipPath><clipPath id="id3"><path d="M 242.234375 241.796875 C 242.234375 241.796875 213.398438 248.816406 200.441406 238.269531 L -26.738281 237.265625 L -12.773438 548.964844 C -12.773438 548.964844 218.90625 544.574219 227.65625 550.402344 C 237.195312 556.808594 249.324219 558.28125 249.324219 558.28125 Z M 242.234375 241.796875 " clip-rule="nonzero"/></clipPath><clipPath id="id4"><path d="M 32 249 L 249.722656 249 L 249.722656 540 L 32 540 Z M 32 249 " clip-rule="nonzero"/></clipPath><clipPath id="id5"><path d="M 242.234375 241.796875 C 242.234375 241.796875 213.398438 248.816406 200.441406 238.269531 L -26.738281 237.265625 L -12.773438 548.964844 C -12.773438 548.964844 218.90625 544.574219 227.65625 550.402344 C 237.195312 556.808594 249.324219 558.28125 249.324219 558.28125 Z M 242.234375 241.796875 " clip-rule="nonzero"/></clipPath><clipPath id="id6"><path d="M 51 268 L 249.722656 268 L 249.722656 521 L 51 521 Z M 51 268 " clip-rule="nonzero"/></clipPath><clipPath id="id7"><path d="M 242.234375 241.796875 C 242.234375 241.796875 213.398438 248.816406 200.441406 238.269531 L -26.738281 237.265625 L -12.773438 548.964844 C -12.773438 548.964844 218.90625 544.574219 227.65625 550.402344 C 237.195312 556.808594 249.324219 558.28125 249.324219 558.28125 Z M 242.234375 241.796875 " clip-rule="nonzero"/></clipPath><clipPath id="id8"><path d="M 51 274 L 249.722656 274 L 249.722656 515.894531 L 51 515.894531 Z M 51 274 " clip-rule="nonzero"/></clipPath><clipPath id="id9"><path d="M 242.234375 241.796875 C 242.234375 241.796875 213.398438 248.816406 200.441406 238.269531 L -26.738281 237.265625 L -12.773438 548.964844 C -12.773438 548.964844 218.90625 544.574219 227.65625 550.402344 C 237.195312 556.808594 249.324219 558.28125 249.324219 558.28125 Z M 242.234375 241.796875 " clip-rule="nonzero"/></clipPath><clipPath id="id10"><path d="M 179 261 L 249.722656 261 L 249.722656 411 L 179 411 Z M 179 261 " clip-rule="nonzero"/></clipPath><clipPath id="id11"><path d="M 242.234375 241.796875 C 242.234375 241.796875 213.398438 248.816406 200.441406 238.269531 L -26.738281 237.265625 L -12.773438 548.964844 C -12.773438 548.964844 218.90625 544.574219 227.65625 550.402344 C 237.195312 556.808594 249.324219 558.28125 249.324219 558.28125 Z M 242.234375 241.796875 " clip-rule="nonzero"/></clipPath><clipPath id="id12"><path d="M 91 304.015625 L 218 304.015625 L 218 485 L 91 485 Z M 91 304.015625 " clip-rule="nonzero"/></clipPath><clipPath id="id13"><path d="M 242.234375 241.796875 C 242.234375 241.796875 213.398438 248.816406 200.441406 238.269531 L -26.738281 237.265625 L -12.773438 548.964844 C -12.773438 548.964844 218.90625 544.574219 227.65625 550.402344 C 237.195312 556.808594 249.324219 558.28125 249.324219 558.28125 Z M 242.234375 241.796875 " clip-rule="nonzero"/></clipPath><clipPath id="id14"><path d="M 106 304.015625 L 222 304.015625 L 222 482 L 106 482 Z M 106 304.015625 " clip-rule="nonzero"/></clipPath><clipPath id="id15"><path d="M 242.234375 241.796875 C 242.234375 241.796875 213.398438 248.816406 200.441406 238.269531 L -26.738281 237.265625 L -12.773438 548.964844 C -12.773438 548.964844 218.90625 544.574219 227.65625 550.402344 C 237.195312 556.808594 249.324219 558.28125 249.324219 558.28125 Z M 242.234375 241.796875 " clip-rule="nonzero"/></clipPath></defs><g clip-path="url(#id1)"><path fill="rgb(36.859131%, 35.688782%, 36.079407%)" d="M 358.253906 702.328125 C 302.636719 690.273438 333.738281 727.195312 420.167969 714.746094 C 469.738281 707.582031 755.484375 651.050781 781.042969 643.636719 C 805.628906 636.511719 805.628906 626.726562 808.042969 585.414062 C 810.417969 544.105469 808.042969 208.945312 808.042969 139.0625 C 808.042969 93.398438 777.085938 92.390625 713.296875 93.398438 C 623.589844 94.871094 367.253906 89.332031 312.175781 94.042969 C 231.433594 100.953125 358.253906 702.328125 358.253906 702.328125 " fill-opacity="1" fill-rule="nonzero"/></g><path fill="rgb(27.059937%, 25.878906%, 26.269531%)" d="M 114.226562 116.464844 C 113.109375 208.332031 120.417969 522.550781 123.980469 571.707031 C 126.824219 610.820312 129.308594 624.351562 142.234375 634.101562 C 168.113281 653.570312 346.339844 716.039062 361.097656 716.113281 C 377.800781 716.21875 361.027344 131.613281 357.605469 116.464844 C 354.222656 101.3125 334.964844 91.957031 304.402344 94.441406 C 281.722656 96.277344 114.226562 116.464844 114.226562 116.464844 " fill-opacity="1" fill-rule="nonzero"/><path fill="rgb(54.119873%, 53.329468%, 53.329468%)" d="M 432.949219 162.199219 C 432.949219 162.199219 436.800781 597.9375 436.800781 630.074219 C 436.800781 630.074219 735.6875 584.625 762.683594 581.0625 C 762.683594 581.0625 770.425781 204.230469 764.628906 152.449219 L 432.949219 162.199219 " fill-opacity="1" fill-rule="nonzero"/><path fill="rgb(45.489502%, 44.309998%, 44.709778%)" d="M 584.28125 522.945312 C 576.433594 526.472656 563.117188 543.242188 580.824219 557.058594 C 598.535156 570.878906 692.273438 534.605469 692.273438 534.605469 C 692.273438 534.605469 703.46875 525.71875 709.230469 524.671875 C 714.988281 523.664062 699.832031 516.035156 699.832031 516.035156 C 699.832031 516.035156 620.566406 506.644531 584.28125 522.945312 " fill-opacity="1" fill-rule="nonzero"/><path fill="rgb(46.269226%, 45.489502%, 45.489502%)" d="M 726.722656 497.578125 L 707.285156 492.394531 C 707.285156 492.394531 692.382812 489.804688 691.410156 496.929688 L 691.734375 502.757812 L 720.566406 513.121094 L 726.722656 497.578125 " fill-opacity="1" fill-rule="nonzero"/><path fill="rgb(35.688782%, 34.509277%, 34.899902%)" d="M 719.417969 521.003906 C 574.492188 572.351562 581.402344 537.734375 586.765625 519.921875 C 588.027344 515.75 593.496094 510.027344 601.8125 507.222656 C 629.960938 497.648438 689.035156 495.527344 714.84375 498.367188 L 719.417969 521.003906 " fill-opacity="1" fill-rule="nonzero"/><path fill="rgb(35.688782%, 34.509277%, 34.899902%)" d="M 737.308594 509.273438 C 738.097656 519.09375 729.675781 527.804688 718.480469 528.703125 C 707.285156 529.640625 697.566406 522.371094 696.773438 512.546875 C 695.945312 502.722656 704.40625 494.015625 715.601562 493.078125 C 726.796875 492.179688 736.515625 499.410156 737.308594 509.273438 " fill-opacity="1" fill-rule="nonzero"/><path fill="rgb(27.059937%, 25.878906%, 26.269531%)" d="M 602.246094 507.078125 C 602.246094 507.078125 586.046875 524.457031 599.507812 533.527344 C 613.007812 542.59375 681.4375 530.503906 708.042969 516.109375 L 705.378906 525.859375 C 705.378906 525.859375 636.980469 550.367188 605.878906 548.421875 C 574.777344 546.480469 575.929688 515.246094 602.246094 507.078125 " fill-opacity="1" fill-rule="nonzero"/><path fill="rgb(27.059937%, 25.878906%, 26.269531%)" d="M 737.234375 512.65625 C 737.234375 512.65625 725.570312 532.589844 708.042969 516.109375 L 705.378906 525.859375 C 705.378906 525.859375 728.597656 539.929688 737.234375 512.65625 " fill-opacity="1" fill-rule="nonzero"/><path fill="rgb(51.759338%, 50.979614%, 50.979614%)" d="M 734.175781 508.265625 C 734.175781 508.265625 727.046875 496.929688 714.738281 497.253906 C 714.738281 497.253906 728.019531 490.128906 734.175781 508.265625 " fill-opacity="1" fill-rule="nonzero"/><path fill="rgb(48.629761%, 47.839355%, 47.839355%)" d="M 700.914062 502.652344 C 700.914062 502.652344 670.675781 494.445312 612.792969 509.558594 C 612.792969 509.558594 673.699219 500.492188 700.914062 502.652344 " fill-opacity="1" fill-rule="nonzero"/><path fill="rgb(45.489502%, 44.309998%, 44.709778%)" d="M 537.628906 290.628906 C 537.628906 290.628906 506.09375 326.902344 503.933594 364.039062 C 502.421875 389.984375 510.847656 452.128906 564.410156 460.765625 C 617.976562 469.402344 662.898438 431.402344 662.898438 431.402344 L 537.628906 290.628906 " fill-opacity="1" fill-rule="nonzero"/><path fill="rgb(44.309998%, 43.139648%, 43.528748%)" d="M 697.207031 338.019531 C 700.445312 391.492188 716.03125 438.09375 670.136719 443.816406 C 668.804688 443.960938 617.902344 443.886719 616.5 443.851562 C 570.136719 443.097656 527.046875 405.347656 523.664062 350.292969 C 520.3125 295.234375 556.457031 247.84375 604.367188 244.460938 C 606.671875 244.316406 655.738281 244.605469 658.003906 244.640625 C 660.632812 244.675781 665.636719 244.496094 667.867188 244.785156 C 704.550781 249.785156 694.183594 288.648438 697.207031 338.019531 " fill-opacity="1" fill-rule="nonzero"/><path fill="rgb(35.688782%, 34.509277%, 34.899902%)" d="M 541.121094 283.144531 C 541.121094 283.144531 537.558594 343.742188 575.679688 360.332031 C 575.679688 360.332031 599.6875 436.007812 650.625 443.886719 C 650.625 443.886719 627.371094 445.757812 605.484375 442.988281 C 583.632812 440.179688 545.117188 421.863281 531.367188 384.117188 C 517.613281 346.332031 524.707031 309.089844 541.121094 283.144531 " fill-opacity="1" fill-rule="nonzero"/><path fill="rgb(73.329163%, 72.549438%, 72.938538%)" d="M 745.046875 338.09375 C 748.394531 393.148438 715.421875 440.683594 667.507812 444.105469 C 619.59375 447.484375 578.054688 405.601562 574.707031 350.542969 C 571.324219 295.488281 607.464844 248.09375 655.375 244.710938 C 703.289062 241.328125 741.699219 283.035156 745.046875 338.09375 " fill-opacity="1" fill-rule="nonzero"/><path fill="rgb(58.039856%, 57.649231%, 57.649231%)" d="M 575.894531 361.484375 C 575.894531 361.484375 583.667969 375.839844 601.019531 381.707031 C 601.019531 381.707031 651.238281 440.289062 708.761719 417.511719 C 708.761719 417.511719 726.257812 404.375 739.144531 383.757812 C 739.144531 383.757812 719.882812 447.773438 658.542969 444.210938 C 598.429688 440.722656 577.261719 381.273438 575.894531 361.484375 " fill-opacity="1" fill-rule="nonzero"/><path fill="rgb(25.099182%, 23.529053%, 23.919678%)" d="M 738.421875 338.488281 C 741.339844 386.960938 713.441406 429.3125 672.765625 432.191406 C 632.160156 435.070312 596.808594 398.113281 593.855469 349.644531 C 590.941406 301.171875 621.46875 259.539062 662.109375 256.625 C 702.714844 253.746094 735.472656 290.015625 738.421875 338.488281 " fill-opacity="1" fill-rule="nonzero"/><path fill="rgb(57.249451%, 56.469727%, 56.469727%)" d="M 721.898438 344.246094 C 721.648438 379.152344 700.300781 407.292969 674.238281 407.074219 C 648.140625 406.894531 627.226562 378.429688 627.480469 343.5625 C 627.765625 308.65625 649.078125 280.554688 675.175781 280.734375 C 701.238281 280.914062 722.152344 309.378906 721.898438 344.246094 " fill-opacity="1" fill-rule="nonzero"/><path fill="rgb(41.569519%, 41.569519%, 41.569519%)" d="M 687.558594 278.789062 L 688.242188 264.433594 L 685.722656 263.605469 L 685.039062 278.070312 C 685.472656 278.179688 685.867188 278.285156 686.296875 278.429688 C 686.695312 278.539062 687.125 278.644531 687.558594 278.789062 " fill-opacity="1" fill-rule="nonzero"/><path fill="rgb(41.569519%, 41.569519%, 41.569519%)" d="M 676.796875 261.554688 L 674.09375 261.265625 L 675.5 276.703125 C 676.398438 276.738281 677.300781 276.773438 678.164062 276.847656 L 676.796875 261.554688 " fill-opacity="1" fill-rule="nonzero"/><path fill="rgb(41.569519%, 41.569519%, 41.569519%)" d="M 664.628906 261.265625 L 661.820312 261.554688 L 665.5625 277.53125 C 666.464844 277.351562 667.398438 277.171875 668.300781 277.0625 L 664.628906 261.265625 " fill-opacity="1" fill-rule="nonzero"/><path fill="rgb(41.569519%, 41.569519%, 41.569519%)" d="M 652.066406 263.855469 L 649.222656 264.863281 L 655.558594 280.734375 C 656.457031 280.335938 657.355469 279.976562 658.292969 279.617188 L 652.066406 263.855469 " fill-opacity="1" fill-rule="nonzero"/><path fill="rgb(41.569519%, 41.569519%, 41.569519%)" d="M 639.609375 269.578125 L 636.875 271.339844 L 645.875 286.453125 C 646.738281 285.84375 647.601562 285.230469 648.464844 284.65625 L 639.609375 269.578125 " fill-opacity="1" fill-rule="nonzero"/><path fill="rgb(41.569519%, 41.569519%, 41.569519%)" d="M 627.839844 278.609375 L 625.390625 281.058594 L 637.019531 294.660156 C 637.773438 293.796875 638.53125 292.96875 639.320312 292.175781 L 627.839844 278.609375 " fill-opacity="1" fill-rule="nonzero"/><path fill="rgb(41.569519%, 41.569519%, 41.569519%)" d="M 617.472656 290.738281 L 615.382812 293.867188 L 629.386719 305.058594 C 630.035156 304.015625 630.648438 303.007812 631.292969 302.035156 L 617.472656 290.738281 " fill-opacity="1" fill-rule="nonzero"/><path fill="rgb(41.569519%, 41.569519%, 41.569519%)" d="M 609.15625 305.597656 L 607.644531 309.269531 L 623.519531 317.402344 C 623.949219 316.214844 624.417969 315.027344 624.921875 313.875 L 609.15625 305.597656 " fill-opacity="1" fill-rule="nonzero"/><path fill="rgb(41.569519%, 41.569519%, 41.569519%)" d="M 603.503906 322.546875 L 602.605469 326.578125 L 619.738281 331.074219 C 619.992188 329.816406 620.242188 328.519531 620.53125 327.261719 L 603.503906 322.546875 " fill-opacity="1" fill-rule="nonzero"/><path fill="rgb(41.569519%, 41.569519%, 41.569519%)" d="M 618.480469 341.511719 L 600.839844 340.683594 L 600.695312 344.820312 L 618.335938 345.46875 C 618.335938 344.785156 618.371094 344.136719 618.371094 343.492188 C 618.40625 342.808594 618.445312 342.160156 618.480469 341.511719 " fill-opacity="1" fill-rule="nonzero"/><path fill="rgb(41.569519%, 41.569519%, 41.569519%)" d="M 601.453125 358.964844 L 602.027344 362.996094 L 619.308594 359.753906 C 619.128906 358.496094 618.949219 357.199219 618.804688 355.90625 L 601.453125 358.964844 " fill-opacity="1" fill-rule="nonzero"/><path fill="rgb(41.569519%, 41.569519%, 41.569519%)" d="M 605.195312 376.378906 L 606.457031 380.085938 L 622.621094 373.285156 C 622.222656 372.097656 621.828125 370.910156 621.503906 369.722656 L 605.195312 376.378906 " fill-opacity="1" fill-rule="nonzero"/><path fill="rgb(41.569519%, 41.569519%, 41.569519%)" d="M 611.710938 391.996094 L 613.546875 395.238281 L 627.984375 385.414062 C 627.40625 384.367188 626.867188 383.324219 626.328125 382.246094 L 611.710938 391.996094 " fill-opacity="1" fill-rule="nonzero"/><path fill="rgb(41.569519%, 41.569519%, 41.569519%)" d="M 620.53125 405.167969 L 622.800781 407.757812 L 635.109375 395.597656 C 634.390625 394.769531 633.671875 393.90625 633.023438 393.042969 L 620.53125 405.167969 " fill-opacity="1" fill-rule="nonzero"/><path fill="rgb(41.569519%, 41.569519%, 41.569519%)" d="M 631.042969 415.460938 L 633.597656 417.332031 L 643.460938 403.621094 C 642.667969 403.007812 641.84375 402.324219 641.085938 401.640625 L 631.042969 415.460938 " fill-opacity="1" fill-rule="nonzero"/><path fill="rgb(41.569519%, 41.569519%, 41.569519%)" d="M 642.5625 422.65625 L 645.261719 423.84375 L 652.640625 409.269531 C 651.777344 408.839844 650.914062 408.40625 650.085938 407.9375 L 642.5625 422.65625 " fill-opacity="1" fill-rule="nonzero"/><path fill="rgb(41.569519%, 41.569519%, 41.569519%)" d="M 654.550781 426.796875 L 657.285156 427.296875 L 662.214844 412.546875 C 661.351562 412.328125 660.453125 412.113281 659.589844 411.859375 L 654.550781 426.796875 " fill-opacity="1" fill-rule="nonzero"/><path fill="rgb(41.569519%, 41.569519%, 41.569519%)" d="M 666.5 428.054688 L 669.164062 427.984375 L 671.828125 413.515625 C 670.964844 413.515625 670.101562 413.515625 669.234375 413.445312 L 666.5 428.054688 " fill-opacity="1" fill-rule="nonzero"/><path fill="rgb(41.569519%, 41.569519%, 41.569519%)" d="M 678.667969 412.90625 L 678.019531 426.796875 L 680.539062 426.183594 L 681.1875 412.4375 C 680.753906 412.507812 680.359375 412.617188 679.925781 412.6875 C 679.53125 412.761719 679.097656 412.832031 678.667969 412.90625 " fill-opacity="1" fill-rule="nonzero"/><path fill="rgb(41.569519%, 41.569519%, 41.569519%)" d="M 688.820312 423.234375 L 691.121094 422.1875 L 689.96875 409.488281 C 689.214844 409.847656 688.421875 410.171875 687.628906 410.457031 L 688.820312 423.234375 " fill-opacity="1" fill-rule="nonzero"/><path fill="rgb(41.569519%, 41.569519%, 41.569519%)" d="M 698.644531 417.796875 L 700.734375 416.359375 L 698.070312 404.953125 C 697.386719 405.421875 696.664062 405.886719 695.945312 406.320312 L 698.644531 417.796875 " fill-opacity="1" fill-rule="nonzero"/><path fill="rgb(41.569519%, 41.569519%, 41.569519%)" d="M 707.429688 410.816406 L 709.265625 409.054688 L 705.304688 399.015625 C 704.695312 399.625 704.082031 400.203125 703.433594 400.777344 L 707.429688 410.816406 " fill-opacity="1" fill-rule="nonzero"/><path fill="rgb(41.569519%, 41.569519%, 41.569519%)" d="M 715.0625 402.503906 L 716.609375 400.453125 L 711.605469 391.960938 C 711.066406 392.644531 710.523438 393.328125 709.984375 394.011719 L 715.0625 402.503906 " fill-opacity="1" fill-rule="nonzero"/><path fill="rgb(41.569519%, 41.569519%, 41.569519%)" d="M 721.46875 393.148438 L 722.726562 390.953125 L 716.898438 384.007812 C 716.464844 384.765625 715.996094 385.519531 715.527344 386.277344 L 721.46875 393.148438 " fill-opacity="1" fill-rule="nonzero"/><path fill="rgb(41.569519%, 41.569519%, 41.569519%)" d="M 726.652344 383.039062 L 727.660156 380.625 L 721.144531 375.335938 C 720.785156 376.164062 720.460938 376.957031 720.0625 377.746094 L 726.652344 383.039062 " fill-opacity="1" fill-rule="nonzero"/><path fill="rgb(41.569519%, 41.569519%, 41.569519%)" d="M 730.574219 372.277344 L 731.296875 369.757812 L 724.277344 366.089844 C 724.058594 366.953125 723.808594 367.816406 723.519531 368.644531 L 730.574219 372.277344 " fill-opacity="1" fill-rule="nonzero"/><path fill="rgb(41.569519%, 41.569519%, 41.569519%)" d="M 733.238281 361.085938 L 733.671875 358.53125 L 726.328125 356.480469 C 726.183594 357.378906 726.039062 358.28125 725.894531 359.144531 L 733.238281 361.085938 " fill-opacity="1" fill-rule="nonzero"/><path fill="rgb(41.569519%, 41.569519%, 41.569519%)" d="M 727.121094 349.390625 L 734.679688 349.644531 L 734.824219 347.054688 L 727.265625 346.691406 C 727.265625 347.125 727.226562 347.59375 727.226562 348.023438 C 727.191406 348.492188 727.15625 348.925781 727.121094 349.390625 " fill-opacity="1" fill-rule="nonzero"/><path fill="rgb(41.569519%, 41.569519%, 41.569519%)" d="M 734.824219 338.09375 L 734.644531 335.5 L 727.082031 336.832031 C 727.15625 337.734375 727.226562 338.632812 727.265625 339.53125 L 734.824219 338.09375 " fill-opacity="1" fill-rule="nonzero"/><path fill="rgb(41.569519%, 41.569519%, 41.569519%)" d="M 733.636719 326.613281 L 733.203125 324.023438 L 725.753906 327.082031 C 725.933594 327.945312 726.074219 328.84375 726.21875 329.707031 L 733.636719 326.613281 " fill-opacity="1" fill-rule="nonzero"/><path fill="rgb(41.569519%, 41.569519%, 41.569519%)" d="M 731.152344 315.316406 L 730.433594 312.796875 L 723.269531 317.617188 C 723.519531 318.445312 723.808594 319.273438 724.058594 320.136719 L 731.152344 315.316406 " fill-opacity="1" fill-rule="nonzero"/><path fill="rgb(41.569519%, 41.569519%, 41.569519%)" d="M 727.371094 304.410156 L 726.292969 302.035156 L 719.597656 308.585938 C 719.992188 309.378906 720.386719 310.167969 720.710938 310.996094 L 727.371094 304.410156 " fill-opacity="1" fill-rule="nonzero"/><path fill="rgb(41.569519%, 41.569519%, 41.569519%)" d="M 722.1875 294.15625 L 720.820312 291.925781 L 714.808594 300.199219 C 715.3125 300.921875 715.78125 301.675781 716.25 302.433594 L 722.1875 294.15625 " fill-opacity="1" fill-rule="nonzero"/><path fill="rgb(41.569519%, 41.569519%, 41.569519%)" d="M 715.671875 284.691406 L 714.015625 282.710938 L 708.90625 292.714844 C 709.515625 293.363281 710.058594 294.011719 710.632812 294.660156 L 715.671875 284.691406 " fill-opacity="1" fill-rule="nonzero"/><path fill="rgb(41.569519%, 41.569519%, 41.569519%)" d="M 707.789062 276.378906 L 705.808594 274.6875 L 701.921875 286.347656 C 702.605469 286.851562 703.253906 287.390625 703.902344 287.964844 L 707.789062 276.378906 " fill-opacity="1" fill-rule="nonzero"/><path fill="rgb(41.569519%, 41.569519%, 41.569519%)" d="M 698.609375 269.507812 L 696.378906 268.210938 L 693.929688 281.382812 C 694.6875 281.742188 695.441406 282.171875 696.199219 282.570312 L 698.609375 269.507812 " fill-opacity="1" fill-rule="nonzero"/><path fill="rgb(47.44873%, 46.669006%, 46.669006%)" d="M 638.675781 303.296875 C 638.675781 303.296875 635.867188 334.132812 655.953125 348.023438 L 721.289062 358.316406 C 721.289062 358.316406 712.503906 408.480469 672.042969 408.011719 C 631.582031 407.507812 613.621094 341.296875 638.675781 303.296875 " fill-opacity="1" fill-rule="nonzero"/><path fill="rgb(73.329163%, 72.549438%, 72.938538%)" d="M 723.484375 342.734375 C 723.304688 367.527344 708.148438 387.535156 689.609375 387.390625 C 671.070312 387.285156 656.203125 367.058594 656.386719 342.265625 C 656.566406 317.4375 671.71875 297.464844 690.257812 297.574219 C 708.796875 297.71875 723.664062 317.941406 723.484375 342.734375 " fill-opacity="1" fill-rule="nonzero"/><path fill="rgb(83.918762%, 83.529663%, 83.529663%)" d="M 685.074219 298.078125 C 685.074219 298.078125 691.84375 302.109375 694.144531 309.160156 C 699.691406 326 709.375 357.308594 711.820312 376.417969 C 711.820312 376.417969 728.523438 360.835938 721.792969 328.234375 C 718.445312 311.894531 704.082031 294.300781 685.074219 298.078125 " fill-opacity="1" fill-rule="nonzero"/><path fill="rgb(60.389709%, 59.609985%, 59.999084%)" d="M 718.371094 345.183594 C 717.257812 364.324219 705.84375 379.257812 692.886719 378.503906 C 679.890625 377.746094 670.316406 361.589844 671.433594 342.445312 C 672.546875 323.265625 683.957031 308.332031 696.917969 309.089844 C 709.878906 309.84375 719.488281 326 718.371094 345.183594 " fill-opacity="1" fill-rule="nonzero"/><path fill="rgb(32.548523%, 31.369019%, 31.369019%)" d="M 433.09375 215.492188 C 433.09375 215.492188 414.949219 215.492188 414.085938 225.855469 C 413.222656 236.21875 414.949219 318.265625 419.269531 330.355469 C 423.589844 342.445312 440.003906 327.765625 440.003906 327.765625 L 433.09375 215.492188 " fill-opacity="1" fill-rule="nonzero"/><path fill="rgb(32.548523%, 31.369019%, 31.369019%)" d="M 433.09375 462.277344 C 433.09375 462.277344 414.949219 462.277344 414.085938 472.640625 C 413.222656 483.003906 414.949219 565.046875 419.269531 577.140625 C 423.589844 589.230469 440.003906 574.546875 440.003906 574.546875 L 433.09375 462.277344 " fill-opacity="1" fill-rule="nonzero"/><path fill="rgb(35.688782%, 34.509277%, 34.899902%)" d="M 425.316406 226.433594 C 427.40625 270.117188 427.40625 315.242188 427.40625 315.242188 C 427.40625 315.242188 427.40625 331.292969 442.09375 332.730469 C 455.554688 334.0625 458.867188 323.988281 458.867188 309.414062 C 458.867188 283.214844 458.867188 226.433594 458.867188 226.433594 C 458.867188 226.433594 454.65625 210.382812 439.96875 210.382812 C 425.316406 210.382812 425.316406 226.433594 425.316406 226.433594 " fill-opacity="1" fill-rule="nonzero"/><path fill="rgb(27.059937%, 25.878906%, 26.269531%)" d="M 439.96875 210.382812 C 439.96875 210.382812 437.988281 214.304688 437.414062 239.53125 C 436.765625 265.582031 435.359375 308.65625 442.597656 319.597656 C 449.832031 330.535156 458.792969 312.4375 458.792969 312.4375 C 458.792969 312.4375 461.027344 332.585938 442.09375 332.730469 C 427.476562 332.839844 427.476562 317.113281 427.367188 307.433594 C 427.296875 297.753906 425.316406 226.433594 425.316406 226.433594 C 425.316406 226.433594 425.210938 210.382812 439.96875 210.382812 " fill-opacity="1" fill-rule="nonzero"/><path fill="rgb(35.688782%, 34.509277%, 34.899902%)" d="M 425.316406 468.320312 C 427.40625 512.007812 427.40625 557.167969 427.40625 557.167969 C 427.40625 557.167969 427.40625 573.179688 442.09375 574.621094 C 455.554688 575.953125 458.867188 565.875 458.867188 551.339844 C 458.867188 525.105469 458.867188 468.320312 458.867188 468.320312 C 458.867188 468.320312 454.65625 452.273438 439.96875 452.273438 C 425.316406 452.273438 425.316406 468.320312 425.316406 468.320312 " fill-opacity="1" fill-rule="nonzero"/><path fill="rgb(27.059937%, 25.878906%, 26.269531%)" d="M 439.96875 452.273438 C 439.96875 452.273438 437.988281 456.195312 437.414062 481.417969 C 436.765625 507.472656 435.359375 550.546875 442.597656 561.484375 C 449.832031 572.425781 458.792969 554.324219 458.792969 554.324219 C 458.792969 554.324219 461.027344 574.476562 442.09375 574.621094 C 427.476562 574.726562 427.476562 559.003906 427.367188 549.324219 C 427.296875 539.644531 425.316406 468.320312 425.316406 468.320312 C 425.316406 468.320312 425.210938 452.273438 439.96875 452.273438 " fill-opacity="1" fill-rule="nonzero"/><path fill="rgb(22.349548%, 20.779419%, 21.179199%)" d="M 242.234375 241.796875 C 242.234375 241.796875 218.152344 240.214844 200.441406 238.269531 L 213.617188 484.660156 L 214.769531 544.464844 C 214.769531 544.464844 221.320312 543.3125 230.066406 549.179688 C 239.640625 555.585938 249.324219 558.28125 249.324219 558.28125 L 242.234375 241.796875 " fill-opacity="1" fill-rule="nonzero"/><path fill="rgb(54.119873%, 53.329468%, 53.329468%)" d="M 209.1875 238.847656 L 210.304688 280.121094 L 201.773438 273.105469 L 200.441406 238.269531 L 209.1875 238.847656 " fill-opacity="1" fill-rule="nonzero"/><path fill="rgb(54.119873%, 53.329468%, 53.329468%)" d="M 214.769531 544.464844 L 224.378906 540.289062 L 223.371094 496.675781 L 213.253906 502.433594 L 214.769531 544.464844 " fill-opacity="1" fill-rule="nonzero"/><path fill="rgb(37.649536%, 36.859131%, 36.859131%)" d="M 224.378906 540.289062 C 224.378906 540.289062 241.082031 546.085938 249.039062 546.515625 L 249.324219 558.28125 C 249.324219 558.28125 227.332031 554.46875 214.769531 544.464844 L 224.378906 540.289062 " fill-opacity="1" fill-rule="nonzero"/><g clip-path="url(#id2)"><g clip-path="url(#id3)"><path fill="rgb(81.959534%, 47.44873%, 5.488586%)" d="M 248.066406 387.175781 C 252.960938 463.285156 225.421875 528.957031 163.507812 539.679688 C 160.339844 540.21875 139.675781 541.117188 136.4375 541.371094 C 69.625 546.589844 11.238281 485.988281 6.054688 406.03125 C 0.871094 326.074219 50.835938 257.019531 117.648438 251.800781 C 120.597656 251.585938 141.835938 250.324219 144.714844 250.324219 C 207.820312 250.792969 243.097656 310.707031 248.066406 387.175781 " fill-opacity="1" fill-rule="nonzero"/></g></g><g clip-path="url(#id4)"><g clip-path="url(#id5)"><path fill="rgb(98.039246%, 70.979309%, 7.839966%)" d="M 275.097656 385.449219 C 280.28125 465.40625 230.320312 534.460938 163.507812 539.679688 C 96.660156 544.859375 38.273438 484.261719 33.125 404.304688 C 27.90625 324.347656 77.871094 255.292969 144.714844 250.074219 C 211.527344 244.890625 269.914062 305.492188 275.097656 385.449219 " fill-opacity="1" fill-rule="nonzero"/></g></g><g clip-path="url(#id6)"><g clip-path="url(#id7)"><path fill="rgb(91.369629%, 58.039856%, 5.099487%)" d="M 162.644531 520.75 C 135.214844 522.476562 108.648438 511.359375 87.769531 489.480469 C 66.636719 467.3125 53.824219 436.65625 51.664062 403.152344 C 47.164062 333.738281 90.289062 273.609375 147.847656 269.109375 C 148.28125 269.074219 148.675781 269.039062 149.109375 269.039062 C 176.503906 267.273438 203.105469 278.394531 223.984375 300.273438 C 245.078125 322.476562 257.929688 353.132812 260.089844 386.601562 C 264.589844 456.015625 221.425781 516.179688 163.902344 520.644531 C 163.472656 520.679688 163.039062 520.714844 162.644531 520.75 " fill-opacity="1" fill-rule="nonzero"/></g></g><g clip-path="url(#id8)"><g clip-path="url(#id9)"><path fill="rgb(97.648621%, 65.879822%, 4.708862%)" d="M 153.140625 515.460938 C 128.804688 515.351562 105.121094 504.738281 86.542969 485.558594 C 65.953125 464.328125 53.464844 434.925781 51.339844 402.828125 C 46.984375 336.367188 88.8125 278.824219 144.609375 274.542969 L 145.832031 274.472656 C 147.703125 274.328125 149.648438 274.292969 151.519531 274.292969 C 175.890625 274.363281 199.539062 285.015625 218.117188 304.195312 C 238.707031 325.425781 251.195312 354.789062 253.320312 386.925781 C 257.675781 453.386719 215.847656 510.925781 160.050781 515.171875 L 158.828125 515.28125 C 156.917969 515.390625 155.011719 515.460938 153.140625 515.460938 " fill-opacity="1" fill-rule="nonzero"/></g></g><g clip-path="url(#id10)"><g clip-path="url(#id11)"><path fill="rgb(98.81897%, 83.918762%, 48.239136%)" d="M 179.417969 261.050781 C 179.417969 261.050781 274.703125 289.835938 267.863281 410.78125 C 267.863281 410.78125 281.796875 375.230469 252.710938 318.554688 C 227.761719 269.972656 179.417969 261.050781 179.417969 261.050781 " fill-opacity="1" fill-rule="nonzero"/></g></g><g clip-path="url(#id12)"><g clip-path="url(#id13)"><path fill="rgb(91.369629%, 58.039856%, 5.099487%)" d="M 217.613281 425.75 C 218.65625 407.542969 207.75 397.25 194.214844 393.078125 C 208.863281 387.859375 213.652344 380.304688 214.550781 364.503906 C 215.558594 346.691406 204.722656 335.214844 181.003906 331.9375 L 173.226562 304.949219 L 163.796875 308.550781 L 162.535156 330.824219 L 149.792969 330.464844 L 144.679688 304.125 L 132.550781 307.648438 L 131.324219 329.925781 L 113.433594 325.5 L 98.460938 328.953125 L 97.09375 353.207031 L 108.179688 353.496094 L 103.679688 433.882812 L 92.484375 435.863281 L 91.117188 460.296875 L 123.980469 461.230469 L 122.757812 483.253906 L 141.226562 483.792969 L 151.734375 480.230469 L 142.449219 461.773438 L 155.226562 462.132812 L 153.96875 484.191406 L 172.46875 484.695312 L 180.28125 481.058594 L 173.730469 462.3125 C 203.285156 461.089844 216.28125 449.679688 217.613281 425.75 Z M 158.289062 437.769531 L 143.023438 437.339844 L 144.859375 404.628906 L 159.546875 405.058594 C 170.058594 405.347656 175.171875 412.472656 174.628906 422.046875 C 174.089844 432.191406 166.316406 437.984375 158.289062 437.769531 Z M 171.460938 369.652344 C 170.957031 378.683594 167.789062 384.046875 157.675781 383.757812 L 146.046875 383.398438 L 147.632812 355.222656 L 159.65625 355.582031 C 166.890625 355.796875 171.929688 361.015625 171.460938 369.652344 " fill-opacity="1" fill-rule="nonzero"/></g></g><g clip-path="url(#id14)"><g clip-path="url(#id15)"><path fill="rgb(98.429871%, 77.249146%, 28.239441%)" d="M 221.824219 422.007812 C 222.832031 403.765625 212.933594 393.507812 200.585938 389.371094 C 213.976562 384.117188 218.402344 376.558594 219.304688 360.761719 C 220.3125 342.949219 210.484375 331.472656 188.8125 328.269531 L 190.109375 305.453125 L 173.226562 304.949219 L 171.964844 327.1875 L 160.339844 326.867188 L 161.5625 304.589844 L 144.679688 304.125 L 143.457031 326.363281 L 113.433594 325.5 L 112.101562 349.75 L 122.183594 350.039062 L 117.574219 432.695312 L 107.460938 432.410156 L 106.089844 456.804688 L 136.113281 457.707031 L 134.890625 479.726562 L 151.734375 480.230469 L 152.996094 458.171875 L 164.625 458.535156 L 163.398438 480.554688 L 180.28125 481.058594 L 181.542969 458.640625 C 208.539062 457.347656 220.492188 445.902344 221.824219 422.007812 Z M 167.574219 434.136719 L 153.644531 433.738281 L 155.445312 401.066406 L 168.871094 401.425781 C 178.445312 401.714844 183.125 408.839844 182.585938 418.410156 C 182.011719 428.558594 174.882812 434.351562 167.574219 434.136719 Z M 179.921875 366.015625 C 179.417969 375.011719 176.503906 380.410156 167.25 380.121094 L 156.632812 379.835938 L 158.214844 351.660156 L 169.195312 351.945312 C 175.820312 352.164062 180.425781 357.378906 179.921875 366.015625 " fill-opacity="1" fill-rule="nonzero"/></g></g></svg>