<svg xmlns="http://www.w3.org/2000/svg" xmlns:xlink="http://www.w3.org/1999/xlink" width="1080" zoomAndPan="magnify" viewBox="0 0 810 809.999993" height="1080" preserveAspectRatio="xMidYMid meet" version="1.0"><path fill="rgb(79.60968%, 50.588989%, 27.059937%)" d="M 405 0 C 181.339844 0 0 181.339844 0 405 C 0 628.660156 181.339844 810 405 810 C 628.660156 810 810 628.660156 810 405 C 810 181.339844 628.660156 0 405 0 Z M 403.378906 579.992188 C 329.097656 579.992188 278.808594 538.921875 275.804688 476.179688 L 342.496094 476.179688 C 344.585938 504.328125 368.347656 522.078125 404.089844 522.078125 C 438.917969 522.078125 463.152344 502.46875 463.152344 474.085938 C 463.152344 445.027344 440.300781 427.003906 402.941406 427.003906 L 361.632812 427.003906 L 361.632812 375.097656 L 402.234375 375.097656 C 433.855469 375.097656 455.289062 356.636719 455.289062 329.398438 C 455.289062 302.636719 434.53125 285.558594 401.996094 285.558594 C 369.699219 285.558594 348.234375 303.785156 346.410156 332.640625 L 282.046875 332.640625 C 284.34375 269.664062 331.1875 229.972656 403.851562 229.972656 C 472.128906 229.972656 521.269531 267.332031 521.269531 319.714844 C 521.269531 358.257812 497.035156 388.226562 459.910156 395.855469 L 459.910156 400.003906 C 505.609375 405.066406 534.195312 435.542969 534.195312 479.386719 C 534.195312 537.773438 479.285156 579.992188 403.378906 579.992188 Z M 403.378906 579.992188 " fill-opacity="1" fill-rule="nonzero"/></svg>