<svg xmlns="http://www.w3.org/2000/svg" xmlns:xlink="http://www.w3.org/1999/xlink" width="1080" zoomAndPan="magnify" viewBox="0 0 810 809.999993" height="1080" preserveAspectRatio="xMidYMid meet" version="1.0"><path fill="rgb(27.059937%, 79.60968%, 69.799805%)" d="M 405 0 C 181.339844 0 0 181.339844 0 405 C 0 628.660156 181.339844 810 405 810 C 628.660156 810 810 628.660156 810 405 C 810 181.339844 628.660156 0 405 0 Z M 527.039062 573.75 L 286.875 573.75 L 286.875 525.082031 L 395.550781 418.734375 C 442.394531 373.039062 454.140625 355.757812 454.140625 334.058594 C 454.140625 307.292969 432.4375 288.359375 401.996094 288.359375 C 369.699219 288.359375 347.558594 309.589844 347.558594 340.265625 L 347.558594 341.652344 L 282.960938 341.652344 L 282.960938 340.503906 C 282.960938 276.140625 332.335938 232.300781 404.324219 232.300781 C 473.78125 232.300781 522.214844 272.226562 522.214844 329.433594 C 522.214844 365.648438 502.605469 396.796875 444.925781 451.035156 L 381.238281 511.71875 L 381.238281 515.867188 L 527.039062 515.867188 Z M 527.039062 573.75 " fill-opacity="1" fill-rule="nonzero"/></svg>