<svg xmlns="http://www.w3.org/2000/svg" xmlns:xlink="http://www.w3.org/1999/xlink" width="1080" zoomAndPan="magnify" viewBox="0 0 810 809.999993" height="1080" preserveAspectRatio="xMidYMid meet" version="1.0"><defs><clipPath id="id1"><path d="M 0 157 L 713 157 L 713 753.449219 L 0 753.449219 Z M 0 157 " clip-rule="nonzero"/></clipPath><clipPath id="id2"><path d="M 0 56.699219 L 810 56.699219 L 810 349 L 0 349 Z M 0 56.699219 " clip-rule="nonzero"/></clipPath></defs><g clip-path="url(#id1)"><path fill="rgb(79.60968%, 27.059937%, 32.548523%)" d="M 599.398438 461.789062 C 599.398438 399.246094 650.269531 348.363281 712.800781 348.363281 L 712.800781 234.9375 C 712.800781 199.199219 683.730469 170.125 648 170.125 L 40.5 170.125 C 25.523438 170.125 11.59375 165.578125 0 157.804688 L 0 234.9375 L 129.601562 234.9375 C 133.277344 234.9375 136.847656 236.191406 139.722656 238.488281 L 184.960938 274.6875 C 192.40625 270.042969 201.195312 267.34375 210.601562 267.34375 C 237.398438 267.34375 259.199219 289.152344 259.199219 315.957031 C 259.199219 342.761719 237.398438 364.566406 210.601562 364.566406 C 183.800781 364.566406 162 342.761719 162 315.957031 C 162 310.363281 162.960938 304.988281 164.707031 299.984375 L 123.917969 267.34375 L 0 267.34375 L 0 380.769531 L 67.585938 380.769531 C 74.273438 361.910156 92.28125 348.363281 113.402344 348.363281 C 140.199219 348.363281 162 370.167969 162 396.972656 C 162 423.777344 140.199219 445.582031 113.402344 445.582031 C 92.28125 445.582031 74.273438 432.035156 67.585938 413.175781 L 0 413.175781 L 0 510.398438 L 67.585938 510.398438 C 74.273438 491.539062 92.28125 477.992188 113.402344 477.992188 C 140.199219 477.992188 162 499.796875 162 526.601562 C 162 553.40625 140.199219 575.210938 113.402344 575.210938 C 92.28125 575.210938 74.273438 561.664062 67.585938 542.804688 L 0 542.804688 L 0 656.230469 L 123.917969 656.230469 L 164.707031 623.589844 C 162.960938 618.585938 162 613.210938 162 607.617188 C 162 580.8125 183.800781 559.007812 210.601562 559.007812 C 237.398438 559.007812 259.199219 580.8125 259.199219 607.617188 C 259.199219 634.421875 237.398438 656.230469 210.601562 656.230469 C 201.195312 656.230469 192.40625 653.535156 184.960938 648.886719 L 139.722656 685.085938 C 136.847656 687.382812 133.277344 688.636719 129.601562 688.636719 L 0 688.636719 L 0 712.941406 C 0 735.277344 18.167969 753.449219 40.5 753.449219 L 648 753.449219 C 683.730469 753.449219 712.800781 724.375 712.800781 688.636719 L 712.800781 575.210938 C 650.269531 575.210938 599.398438 524.328125 599.398438 461.789062 Z M 405 623.820312 C 315.671875 623.820312 243 551.132812 243 461.789062 C 243 372.441406 315.671875 299.753906 405 299.753906 C 494.328125 299.753906 567 372.441406 567 461.789062 C 567 551.132812 494.328125 623.820312 405 623.820312 Z M 405 623.820312 " fill-opacity="1" fill-rule="nonzero"/></g><path fill="rgb(79.60968%, 27.059937%, 32.548523%)" d="M 226.800781 607.617188 C 226.800781 608.148438 226.773438 608.679688 226.722656 609.207031 C 226.671875 609.734375 226.59375 610.257812 226.488281 610.78125 C 226.386719 611.300781 226.257812 611.8125 226.101562 612.320312 C 225.949219 612.832031 225.769531 613.328125 225.566406 613.820312 C 225.363281 614.308594 225.136719 614.789062 224.886719 615.257812 C 224.636719 615.726562 224.363281 616.179688 224.070312 616.621094 C 223.777344 617.0625 223.460938 617.488281 223.125 617.898438 C 222.785156 618.308594 222.429688 618.699219 222.054688 619.078125 C 221.679688 619.453125 221.289062 619.808594 220.878906 620.144531 C 220.46875 620.480469 220.042969 620.796875 219.601562 621.089844 C 219.160156 621.386719 218.707031 621.660156 218.238281 621.910156 C 217.769531 622.160156 217.289062 622.386719 216.800781 622.589844 C 216.308594 622.792969 215.8125 622.96875 215.304688 623.125 C 214.796875 623.277344 214.28125 623.40625 213.761719 623.511719 C 213.242188 623.613281 212.714844 623.691406 212.1875 623.746094 C 211.660156 623.796875 211.132812 623.820312 210.601562 623.820312 C 210.070312 623.820312 209.539062 623.796875 209.011719 623.742188 C 208.484375 623.691406 207.960938 623.613281 207.441406 623.511719 C 206.917969 623.40625 206.40625 623.277344 205.898438 623.125 C 205.390625 622.96875 204.890625 622.792969 204.402344 622.589844 C 203.910156 622.386719 203.433594 622.160156 202.964844 621.910156 C 202.496094 621.660156 202.042969 621.386719 201.601562 621.089844 C 201.160156 620.796875 200.734375 620.480469 200.324219 620.144531 C 199.914062 619.808594 199.519531 619.453125 199.144531 619.078125 C 198.769531 618.699219 198.414062 618.308594 198.078125 617.898438 C 197.742188 617.488281 197.425781 617.0625 197.132812 616.621094 C 196.835938 616.179688 196.5625 615.726562 196.3125 615.257812 C 196.0625 614.789062 195.835938 614.308594 195.632812 613.820312 C 195.429688 613.328125 195.253906 612.832031 195.097656 612.320312 C 194.945312 611.8125 194.816406 611.300781 194.710938 610.78125 C 194.609375 610.257812 194.53125 609.734375 194.480469 609.207031 C 194.425781 608.679688 194.402344 608.148438 194.402344 607.617188 C 194.402344 607.089844 194.425781 606.558594 194.480469 606.03125 C 194.53125 605.503906 194.609375 604.976562 194.710938 604.457031 C 194.816406 603.9375 194.945312 603.421875 195.097656 602.914062 C 195.253906 602.40625 195.429688 601.90625 195.632812 601.417969 C 195.835938 600.925781 196.0625 600.449219 196.3125 599.980469 C 196.5625 599.511719 196.835938 599.058594 197.132812 598.617188 C 197.425781 598.175781 197.742188 597.75 198.078125 597.339844 C 198.414062 596.929688 198.769531 596.535156 199.144531 596.160156 C 199.519531 595.785156 199.914062 595.429688 200.324219 595.09375 C 200.734375 594.757812 201.160156 594.441406 201.601562 594.144531 C 202.042969 593.851562 202.496094 593.578125 202.964844 593.328125 C 203.433594 593.078125 203.910156 592.851562 204.402344 592.648438 C 204.890625 592.445312 205.390625 592.265625 205.898438 592.113281 C 206.40625 591.957031 206.917969 591.828125 207.441406 591.726562 C 207.960938 591.621094 208.484375 591.546875 209.011719 591.492188 C 209.539062 591.441406 210.070312 591.414062 210.601562 591.414062 C 211.132812 591.414062 211.660156 591.441406 212.1875 591.492188 C 212.714844 591.546875 213.242188 591.621094 213.761719 591.726562 C 214.28125 591.828125 214.796875 591.957031 215.304688 592.113281 C 215.8125 592.265625 216.308594 592.445312 216.800781 592.648438 C 217.289062 592.851562 217.769531 593.078125 218.238281 593.328125 C 218.707031 593.578125 219.160156 593.851562 219.601562 594.144531 C 220.042969 594.441406 220.46875 594.757812 220.878906 595.09375 C 221.289062 595.429688 221.679688 595.785156 222.054688 596.160156 C 222.429688 596.535156 222.785156 596.929688 223.125 597.339844 C 223.460938 597.75 223.777344 598.175781 224.070312 598.617188 C 224.363281 599.058594 224.636719 599.511719 224.886719 599.980469 C 225.136719 600.449219 225.363281 600.925781 225.566406 601.417969 C 225.769531 601.90625 225.949219 602.40625 226.101562 602.914062 C 226.257812 603.421875 226.386719 603.9375 226.488281 604.457031 C 226.59375 604.976562 226.671875 605.503906 226.722656 606.03125 C 226.773438 606.558594 226.800781 607.089844 226.800781 607.617188 Z M 226.800781 607.617188 " fill-opacity="1" fill-rule="nonzero"/><path fill="rgb(79.60968%, 27.059937%, 32.548523%)" d="M 419.210938 514.742188 L 453.601562 494.878906 L 453.601562 457.410156 L 419.210938 477.269531 Z M 419.210938 514.742188 " fill-opacity="1" fill-rule="nonzero"/><path fill="rgb(79.60968%, 27.059937%, 32.548523%)" d="M 405 332.160156 C 333.539062 332.160156 275.402344 390.308594 275.402344 461.789062 C 275.402344 533.265625 333.539062 591.414062 405 591.414062 C 476.460938 591.414062 534.597656 533.265625 534.597656 461.789062 C 534.597656 390.308594 476.460938 332.160156 405 332.160156 Z M 486 504.238281 C 486 510.023438 482.910156 515.375 477.898438 518.269531 L 411.113281 556.835938 C 408.605469 558.28125 405.808594 559.007812 403.011719 559.007812 C 400.214844 559.007812 397.417969 558.285156 394.910156 556.835938 L 328.125 518.269531 C 323.109375 515.375 320.023438 510.023438 320.023438 504.238281 L 320.023438 427.101562 C 320.023438 421.3125 323.109375 415.960938 328.125 413.066406 L 394.910156 374.5 C 399.925781 371.605469 406.097656 371.605469 411.113281 374.5 L 477.898438 413.066406 C 482.910156 415.960938 486 421.308594 486 427.097656 Z M 486 504.238281 " fill-opacity="1" fill-rule="nonzero"/><path fill="rgb(79.60968%, 27.059937%, 32.548523%)" d="M 129.601562 396.972656 C 129.601562 397.503906 129.574219 398.035156 129.523438 398.5625 C 129.472656 399.089844 129.394531 399.613281 129.289062 400.132812 C 129.1875 400.65625 129.058594 401.167969 128.902344 401.675781 C 128.75 402.183594 128.570312 402.683594 128.367188 403.175781 C 128.164062 403.664062 127.9375 404.144531 127.6875 404.613281 C 127.4375 405.078125 127.164062 405.535156 126.871094 405.976562 C 126.574219 406.417969 126.261719 406.84375 125.921875 407.253906 C 125.585938 407.664062 125.230469 408.054688 124.855469 408.429688 C 124.480469 408.804688 124.089844 409.160156 123.679688 409.5 C 123.269531 409.835938 122.84375 410.152344 122.402344 410.445312 C 121.960938 410.742188 121.503906 411.011719 121.039062 411.261719 C 120.570312 411.511719 120.089844 411.738281 119.601562 411.941406 C 119.109375 412.144531 118.609375 412.324219 118.105469 412.480469 C 117.597656 412.632812 117.082031 412.761719 116.5625 412.867188 C 116.042969 412.96875 115.515625 413.046875 114.988281 413.097656 C 114.460938 413.152344 113.929688 413.175781 113.402344 413.175781 C 112.871094 413.175781 112.339844 413.152344 111.8125 413.097656 C 111.285156 413.046875 110.761719 412.96875 110.242188 412.867188 C 109.71875 412.761719 109.207031 412.632812 108.699219 412.480469 C 108.191406 412.324219 107.691406 412.144531 107.203125 411.941406 C 106.710938 411.738281 106.230469 411.511719 105.765625 411.261719 C 105.296875 411.011719 104.84375 410.742188 104.402344 410.445312 C 103.960938 410.152344 103.535156 409.835938 103.125 409.5 C 102.714844 409.160156 102.320312 408.804688 101.945312 408.429688 C 101.570312 408.054688 101.214844 407.664062 100.878906 407.253906 C 100.542969 406.84375 100.226562 406.417969 99.929688 405.976562 C 99.636719 405.535156 99.363281 405.078125 99.113281 404.613281 C 98.863281 404.144531 98.636719 403.664062 98.433594 403.175781 C 98.230469 402.683594 98.050781 402.183594 97.898438 401.675781 C 97.746094 401.167969 97.617188 400.65625 97.511719 400.132812 C 97.410156 399.613281 97.332031 399.089844 97.277344 398.5625 C 97.226562 398.035156 97.199219 397.503906 97.199219 396.972656 C 97.199219 396.441406 97.226562 395.914062 97.277344 395.386719 C 97.332031 394.855469 97.410156 394.332031 97.511719 393.8125 C 97.617188 393.292969 97.746094 392.777344 97.898438 392.269531 C 98.050781 391.761719 98.230469 391.261719 98.433594 390.773438 C 98.636719 390.28125 98.863281 389.804688 99.113281 389.335938 C 99.363281 388.867188 99.636719 388.414062 99.929688 387.972656 C 100.226562 387.53125 100.542969 387.105469 100.878906 386.695312 C 101.214844 386.285156 101.570312 385.890625 101.945312 385.515625 C 102.320312 385.140625 102.714844 384.785156 103.125 384.449219 C 103.535156 384.109375 103.960938 383.796875 104.402344 383.5 C 104.84375 383.207031 105.296875 382.933594 105.765625 382.683594 C 106.230469 382.433594 106.710938 382.207031 107.203125 382.003906 C 107.691406 381.800781 108.191406 381.621094 108.699219 381.46875 C 109.207031 381.3125 109.71875 381.183594 110.242188 381.082031 C 110.761719 380.976562 111.285156 380.898438 111.8125 380.847656 C 112.339844 380.796875 112.871094 380.769531 113.402344 380.769531 C 113.929688 380.769531 114.460938 380.796875 114.988281 380.847656 C 115.515625 380.898438 116.042969 380.976562 116.5625 381.082031 C 117.082031 381.183594 117.597656 381.3125 118.105469 381.46875 C 118.609375 381.621094 119.109375 381.800781 119.601562 382.003906 C 120.089844 382.207031 120.570312 382.433594 121.039062 382.683594 C 121.503906 382.933594 121.960938 383.207031 122.402344 383.5 C 122.84375 383.796875 123.269531 384.109375 123.679688 384.449219 C 124.089844 384.785156 124.480469 385.140625 124.855469 385.515625 C 125.230469 385.890625 125.585938 386.285156 125.921875 386.695312 C 126.261719 387.105469 126.574219 387.53125 126.871094 387.972656 C 127.164062 388.414062 127.4375 388.867188 127.6875 389.335938 C 127.9375 389.804688 128.164062 390.28125 128.367188 390.773438 C 128.570312 391.261719 128.75 391.761719 128.902344 392.269531 C 129.058594 392.777344 129.1875 393.292969 129.289062 393.8125 C 129.394531 394.332031 129.472656 394.855469 129.523438 395.386719 C 129.574219 395.914062 129.601562 396.441406 129.601562 396.972656 Z M 129.601562 396.972656 " fill-opacity="1" fill-rule="nonzero"/><path fill="rgb(79.60968%, 27.059937%, 32.548523%)" d="M 403.011719 407.238281 L 366.679688 428.222656 L 403.011719 449.203125 L 439.347656 428.222656 Z M 403.011719 407.238281 " fill-opacity="1" fill-rule="nonzero"/><path fill="rgb(79.60968%, 27.059937%, 32.548523%)" d="M 129.601562 526.601562 C 129.601562 527.132812 129.574219 527.660156 129.523438 528.1875 C 129.472656 528.71875 129.394531 529.242188 129.289062 529.761719 C 129.1875 530.28125 129.058594 530.796875 128.902344 531.304688 C 128.75 531.8125 128.570312 532.3125 128.367188 532.800781 C 128.164062 533.292969 127.9375 533.769531 127.6875 534.238281 C 127.4375 534.707031 127.164062 535.164062 126.871094 535.601562 C 126.574219 536.042969 126.261719 536.46875 125.921875 536.878906 C 125.585938 537.289062 125.230469 537.683594 124.855469 538.058594 C 124.480469 538.433594 124.089844 538.789062 123.679688 539.125 C 123.269531 539.464844 122.84375 539.777344 122.402344 540.074219 C 121.960938 540.367188 121.503906 540.640625 121.039062 540.890625 C 120.570312 541.140625 120.089844 541.367188 119.601562 541.570312 C 119.109375 541.773438 118.609375 541.953125 118.105469 542.105469 C 117.597656 542.261719 117.082031 542.390625 116.5625 542.492188 C 116.042969 542.597656 115.515625 542.675781 114.988281 542.726562 C 114.460938 542.777344 113.929688 542.804688 113.402344 542.804688 C 112.871094 542.804688 112.339844 542.777344 111.8125 542.726562 C 111.285156 542.675781 110.761719 542.597656 110.242188 542.492188 C 109.71875 542.390625 109.207031 542.261719 108.699219 542.105469 C 108.191406 541.953125 107.691406 541.773438 107.203125 541.570312 C 106.710938 541.367188 106.230469 541.140625 105.765625 540.890625 C 105.296875 540.640625 104.84375 540.367188 104.402344 540.074219 C 103.960938 539.777344 103.535156 539.464844 103.125 539.125 C 102.714844 538.789062 102.320312 538.433594 101.945312 538.058594 C 101.570312 537.683594 101.214844 537.289062 100.878906 536.878906 C 100.542969 536.46875 100.226562 536.042969 99.929688 535.601562 C 99.636719 535.160156 99.363281 534.707031 99.113281 534.238281 C 98.863281 533.769531 98.636719 533.292969 98.433594 532.800781 C 98.230469 532.3125 98.050781 531.8125 97.898438 531.304688 C 97.746094 530.796875 97.617188 530.28125 97.511719 529.761719 C 97.410156 529.242188 97.332031 528.71875 97.277344 528.1875 C 97.226562 527.660156 97.199219 527.132812 97.199219 526.601562 C 97.199219 526.070312 97.226562 525.542969 97.277344 525.011719 C 97.332031 524.484375 97.410156 523.960938 97.511719 523.441406 C 97.617188 522.917969 97.746094 522.40625 97.898438 521.898438 C 98.050781 521.390625 98.230469 520.890625 98.433594 520.398438 C 98.636719 519.910156 98.863281 519.429688 99.113281 518.964844 C 99.363281 518.496094 99.636719 518.039062 99.929688 517.597656 C 100.226562 517.15625 100.542969 516.730469 100.878906 516.320312 C 101.214844 515.910156 101.570312 515.519531 101.945312 515.144531 C 102.320312 514.769531 102.714844 514.414062 103.125 514.074219 C 103.535156 513.738281 103.960938 513.421875 104.402344 513.128906 C 104.84375 512.832031 105.296875 512.5625 105.765625 512.3125 C 106.230469 512.0625 106.710938 511.835938 107.203125 511.632812 C 107.691406 511.429688 108.191406 511.25 108.699219 511.09375 C 109.207031 510.941406 109.71875 510.8125 110.242188 510.710938 C 110.761719 510.605469 111.285156 510.527344 111.8125 510.476562 C 112.339844 510.421875 112.871094 510.398438 113.402344 510.398438 C 113.929688 510.398438 114.460938 510.421875 114.988281 510.476562 C 115.515625 510.527344 116.042969 510.605469 116.5625 510.710938 C 117.082031 510.8125 117.597656 510.941406 118.105469 511.09375 C 118.609375 511.25 119.109375 511.429688 119.601562 511.632812 C 120.089844 511.835938 120.570312 512.0625 121.039062 512.3125 C 121.503906 512.5625 121.960938 512.832031 122.402344 513.128906 C 122.84375 513.421875 123.269531 513.738281 123.679688 514.074219 C 124.089844 514.414062 124.480469 514.769531 124.855469 515.144531 C 125.230469 515.519531 125.585938 515.910156 125.921875 516.320312 C 126.261719 516.730469 126.574219 517.15625 126.871094 517.597656 C 127.164062 518.039062 127.4375 518.496094 127.6875 518.964844 C 127.9375 519.429688 128.164062 519.910156 128.367188 520.398438 C 128.570312 520.890625 128.75 521.390625 128.902344 521.898438 C 129.058594 522.40625 129.1875 522.917969 129.289062 523.441406 C 129.394531 523.960938 129.472656 524.484375 129.523438 525.011719 C 129.574219 525.542969 129.601562 526.070312 129.601562 526.601562 Z M 129.601562 526.601562 " fill-opacity="1" fill-rule="nonzero"/><path fill="rgb(79.60968%, 27.059937%, 32.548523%)" d="M 631.800781 461.789062 C 631.800781 506.460938 668.136719 542.804688 712.800781 542.804688 L 810 542.804688 L 810 380.769531 L 712.800781 380.769531 C 668.136719 380.769531 631.800781 417.113281 631.800781 461.789062 Z M 761.398438 461.789062 C 761.398438 488.59375 739.597656 510.398438 712.800781 510.398438 C 686 510.398438 664.199219 488.59375 664.199219 461.789062 C 664.199219 434.984375 686 413.175781 712.800781 413.175781 C 739.597656 413.175781 761.398438 434.984375 761.398438 461.789062 Z M 761.398438 461.789062 " fill-opacity="1" fill-rule="nonzero"/><g clip-path="url(#id2)"><path fill="rgb(79.60968%, 27.059937%, 32.548523%)" d="M 664.199219 56.699219 L 40.5 56.699219 C 18.167969 56.699219 0 74.871094 0 97.207031 C 0 119.546875 18.167969 137.71875 40.5 137.71875 L 648 137.71875 C 701.59375 137.71875 745.199219 181.332031 745.199219 234.9375 L 745.199219 348.363281 L 810 348.363281 L 810 202.53125 C 810 122.121094 744.59375 56.699219 664.199219 56.699219 Z M 664.199219 56.699219 " fill-opacity="1" fill-rule="nonzero"/></g><path fill="rgb(79.60968%, 27.059937%, 32.548523%)" d="M 352.421875 494.878906 L 386.8125 514.742188 L 386.8125 477.269531 L 352.421875 457.410156 Z M 352.421875 494.878906 " fill-opacity="1" fill-rule="nonzero"/><path fill="rgb(79.60968%, 27.059937%, 32.548523%)" d="M 729 461.789062 C 729 462.316406 728.972656 462.847656 728.921875 463.375 C 728.867188 463.902344 728.789062 464.429688 728.6875 464.949219 C 728.582031 465.46875 728.457031 465.984375 728.300781 466.492188 C 728.148438 467 727.96875 467.496094 727.765625 467.988281 C 727.5625 468.476562 727.335938 468.957031 727.085938 469.425781 C 726.835938 469.894531 726.5625 470.347656 726.269531 470.789062 C 725.972656 471.230469 725.65625 471.65625 725.320312 472.066406 C 724.984375 472.476562 724.628906 472.871094 724.253906 473.246094 C 723.878906 473.621094 723.484375 473.976562 723.074219 474.3125 C 722.664062 474.648438 722.238281 474.964844 721.800781 475.261719 C 721.359375 475.554688 720.902344 475.828125 720.433594 476.078125 C 719.96875 476.328125 719.488281 476.554688 719 476.757812 C 718.507812 476.960938 718.007812 477.140625 717.5 477.292969 C 716.992188 477.445312 716.480469 477.574219 715.960938 477.679688 C 715.4375 477.78125 714.914062 477.859375 714.386719 477.914062 C 713.859375 477.964844 713.328125 477.992188 712.800781 477.992188 C 712.269531 477.992188 711.738281 477.964844 711.210938 477.914062 C 710.683594 477.859375 710.160156 477.78125 709.636719 477.679688 C 709.117188 477.574219 708.605469 477.445312 708.097656 477.292969 C 707.589844 477.140625 707.089844 476.960938 706.597656 476.757812 C 706.109375 476.554688 705.628906 476.328125 705.164062 476.078125 C 704.695312 475.828125 704.238281 475.554688 703.796875 475.261719 C 703.359375 474.964844 702.933594 474.648438 702.523438 474.3125 C 702.113281 473.976562 701.71875 473.621094 701.34375 473.246094 C 700.96875 472.871094 700.613281 472.476562 700.277344 472.066406 C 699.941406 471.65625 699.625 471.230469 699.328125 470.789062 C 699.035156 470.347656 698.761719 469.894531 698.511719 469.425781 C 698.261719 468.957031 698.035156 468.476562 697.832031 467.988281 C 697.628906 467.496094 697.449219 467 697.296875 466.492188 C 697.140625 465.984375 697.015625 465.46875 696.910156 464.949219 C 696.808594 464.429688 696.730469 463.902344 696.675781 463.375 C 696.625 462.847656 696.597656 462.316406 696.597656 461.789062 C 696.597656 461.257812 696.625 460.726562 696.675781 460.199219 C 696.730469 459.671875 696.808594 459.148438 696.910156 458.625 C 697.015625 458.105469 697.140625 457.589844 697.296875 457.082031 C 697.449219 456.574219 697.628906 456.078125 697.832031 455.585938 C 698.035156 455.097656 698.261719 454.617188 698.511719 454.148438 C 698.761719 453.679688 699.035156 453.226562 699.328125 452.785156 C 699.625 452.34375 699.941406 451.917969 700.277344 451.507812 C 700.613281 451.097656 700.96875 450.703125 701.34375 450.328125 C 701.71875 449.953125 702.113281 449.597656 702.523438 449.261719 C 702.933594 448.925781 703.359375 448.609375 703.796875 448.316406 C 704.238281 448.019531 704.695312 447.746094 705.164062 447.496094 C 705.628906 447.246094 706.109375 447.019531 706.597656 446.816406 C 707.089844 446.613281 707.589844 446.433594 708.097656 446.28125 C 708.605469 446.128906 709.117188 446 709.636719 445.894531 C 710.160156 445.792969 710.683594 445.714844 711.210938 445.660156 C 711.738281 445.609375 712.269531 445.582031 712.800781 445.582031 C 713.328125 445.582031 713.859375 445.609375 714.386719 445.660156 C 714.914062 445.714844 715.4375 445.792969 715.960938 445.894531 C 716.480469 446 716.992188 446.128906 717.5 446.28125 C 718.007812 446.433594 718.507812 446.613281 719 446.816406 C 719.488281 447.019531 719.96875 447.246094 720.433594 447.496094 C 720.902344 447.746094 721.359375 448.019531 721.800781 448.316406 C 722.238281 448.609375 722.664062 448.925781 723.074219 449.261719 C 723.484375 449.597656 723.878906 449.953125 724.253906 450.328125 C 724.628906 450.703125 724.984375 451.097656 725.320312 451.507812 C 725.65625 451.917969 725.972656 452.34375 726.269531 452.785156 C 726.5625 453.226562 726.835938 453.679688 727.085938 454.148438 C 727.335938 454.617188 727.5625 455.097656 727.765625 455.585938 C 727.96875 456.078125 728.148438 456.574219 728.300781 457.082031 C 728.457031 457.589844 728.582031 458.105469 728.6875 458.625 C 728.789062 459.148438 728.867188 459.671875 728.921875 460.199219 C 728.972656 460.726562 729 461.257812 729 461.789062 Z M 729 461.789062 " fill-opacity="1" fill-rule="nonzero"/><path fill="rgb(79.60968%, 27.059937%, 32.548523%)" d="M 745.199219 704.839844 C 780.929688 704.839844 810 675.765625 810 640.027344 L 810 575.210938 L 745.199219 575.210938 Z M 745.199219 704.839844 " fill-opacity="1" fill-rule="nonzero"/><path fill="rgb(79.60968%, 27.059937%, 32.548523%)" d="M 226.800781 315.957031 C 226.800781 316.488281 226.773438 317.015625 226.722656 317.542969 C 226.671875 318.070312 226.59375 318.597656 226.488281 319.117188 C 226.386719 319.636719 226.257812 320.152344 226.101562 320.660156 C 225.949219 321.167969 225.769531 321.667969 225.566406 322.15625 C 225.363281 322.648438 225.136719 323.125 224.886719 323.59375 C 224.636719 324.0625 224.363281 324.515625 224.070312 324.957031 C 223.777344 325.398438 223.460938 325.824219 223.125 326.234375 C 222.785156 326.644531 222.429688 327.039062 222.054688 327.414062 C 221.679688 327.789062 221.289062 328.144531 220.878906 328.480469 C 220.46875 328.816406 220.042969 329.132812 219.601562 329.429688 C 219.160156 329.722656 218.707031 329.996094 218.238281 330.246094 C 217.769531 330.496094 217.289062 330.722656 216.800781 330.925781 C 216.308594 331.128906 215.8125 331.308594 215.304688 331.460938 C 214.796875 331.617188 214.28125 331.746094 213.761719 331.847656 C 213.242188 331.953125 212.714844 332.03125 212.1875 332.082031 C 211.660156 332.132812 211.132812 332.160156 210.601562 332.160156 C 210.070312 332.160156 209.539062 332.132812 209.011719 332.082031 C 208.484375 332.03125 207.960938 331.953125 207.441406 331.847656 C 206.917969 331.746094 206.40625 331.617188 205.898438 331.460938 C 205.390625 331.308594 204.890625 331.128906 204.402344 330.925781 C 203.910156 330.722656 203.433594 330.496094 202.964844 330.246094 C 202.496094 329.996094 202.042969 329.722656 201.601562 329.429688 C 201.160156 329.132812 200.734375 328.816406 200.324219 328.480469 C 199.914062 328.144531 199.519531 327.789062 199.144531 327.414062 C 198.769531 327.039062 198.414062 326.644531 198.078125 326.234375 C 197.742188 325.824219 197.425781 325.398438 197.132812 324.957031 C 196.835938 324.515625 196.5625 324.0625 196.3125 323.59375 C 196.0625 323.125 195.835938 322.648438 195.632812 322.15625 C 195.429688 321.667969 195.253906 321.167969 195.097656 320.660156 C 194.945312 320.152344 194.816406 319.636719 194.710938 319.117188 C 194.609375 318.597656 194.53125 318.070312 194.480469 317.542969 C 194.425781 317.015625 194.402344 316.488281 194.402344 315.957031 C 194.402344 315.425781 194.425781 314.894531 194.480469 314.367188 C 194.53125 313.839844 194.609375 313.316406 194.710938 312.792969 C 194.816406 312.273438 194.945312 311.761719 195.097656 311.253906 C 195.253906 310.746094 195.429688 310.246094 195.632812 309.753906 C 195.835938 309.265625 196.0625 308.785156 196.3125 308.316406 C 196.5625 307.847656 196.835938 307.394531 197.132812 306.953125 C 197.425781 306.511719 197.742188 306.085938 198.078125 305.675781 C 198.414062 305.265625 198.769531 304.875 199.144531 304.5 C 199.519531 304.121094 199.914062 303.765625 200.324219 303.429688 C 200.734375 303.09375 201.160156 302.777344 201.601562 302.484375 C 202.042969 302.1875 202.496094 301.914062 202.964844 301.664062 C 203.433594 301.414062 203.910156 301.1875 204.402344 300.984375 C 204.890625 300.78125 205.390625 300.605469 205.898438 300.449219 C 206.40625 300.296875 206.917969 300.167969 207.441406 300.0625 C 207.960938 299.960938 208.484375 299.882812 209.011719 299.832031 C 209.539062 299.777344 210.070312 299.753906 210.601562 299.753906 C 211.132812 299.753906 211.660156 299.777344 212.1875 299.832031 C 212.714844 299.882812 213.242188 299.960938 213.761719 300.0625 C 214.28125 300.167969 214.796875 300.296875 215.304688 300.449219 C 215.8125 300.605469 216.308594 300.78125 216.800781 300.984375 C 217.289062 301.1875 217.769531 301.414062 218.238281 301.664062 C 218.707031 301.914062 219.160156 302.1875 219.601562 302.484375 C 220.042969 302.777344 220.46875 303.09375 220.878906 303.429688 C 221.289062 303.765625 221.679688 304.121094 222.054688 304.5 C 222.429688 304.875 222.785156 305.265625 223.125 305.675781 C 223.460938 306.085938 223.777344 306.511719 224.070312 306.953125 C 224.363281 307.394531 224.636719 307.847656 224.886719 308.316406 C 225.136719 308.785156 225.363281 309.265625 225.566406 309.753906 C 225.769531 310.246094 225.949219 310.746094 226.101562 311.253906 C 226.257812 311.761719 226.386719 312.273438 226.488281 312.792969 C 226.59375 313.316406 226.671875 313.839844 226.722656 314.367188 C 226.773438 314.894531 226.800781 315.425781 226.800781 315.957031 Z M 226.800781 315.957031 " fill-opacity="1" fill-rule="nonzero"/></svg>